<?xml version="1.0" standalone="no"?>
<!DOCTYPE svg PUBLIC "-//W3C//DTD SVG 1.1//EN" "http://www.w3.org/Graphics/SVG/1.1/DTD/svg11.dtd" >
<svg xmlns="http://www.w3.org/2000/svg">
<metadata>
This is a custom SVG font generated by IcoMoon.
<iconset grid="16"></iconset>
</metadata>
<defs>
<font id="ux-common-amenities-font" horiz-adv-x="512" >
<font-face units-per-em="512" ascent="480" descent="-32" />
<missing-glyph horiz-adv-x="512" />
<glyph class="hidden" unicode="&#xf000;" d="M0,480L 512 -32L0 -32 z" horiz-adv-x="0" />
<glyph unicode="&#xe000;" d="M 209.92,288C 203.776,281.6, 199.936,273.408, 199.936,264.192l0-17.92 c0,0-21.76-44.544-48.128-17.92c-26.624,26.906-47.872,53.76-47.872,53.76
	S 79.36,255.258, 74.496,255.258s 125.44-169.754, 125.44-169.754L 199.936,67.84 c0-19.968, 17.408-35.84, 38.656-35.84l 147.712,0 c 21.555,0, 38.707,15.872, 38.707,35.84l0,91.392 
	C 476.211,179.942, 512,227.072, 512,282.112c0,74.010-76.8,133.888-156.928,133.888C 277.248,416, 213.248,359.142, 209.92,288z M 425.011,204.058L 425.011,260.352 
	c0,19.712-29.235,35.61-50.483,35.61L 251.904,295.962 C 262.656,336.896, 302.592,367.36, 350.438,367.36c 55.834,0, 113.152-37.862, 113.152-89.856
	C 463.59,247.808, 448.538,221.21, 425.011,204.058z M 4.352,285.952c 15.872-21.248, 49.408-21.248, 74.24,0.256c 24.832,21.504, 30.208,55.296, 13.056,74.752L 4.352,285.952z"  />
<glyph unicode="&#xe001;" d="M 445.44,467.2L 64.256,467.2 C 49.92,467.2, 38.4,455.142, 38.4,440.576l0-433.152 c0-14.566, 11.52-26.624, 25.856-26.624l 383.488,0 
	c 14.336,0, 25.856,12.058, 25.856,26.624L 473.6,440.576 C 473.6,455.142, 459.776,467.2, 445.44,467.2z M 307.2,437.99c 16.41,0, 29.952-13.798, 29.952-30.95
	c0-16.896-13.542-30.72-29.952-30.72c-16.64,0-29.952,13.824-29.952,30.72C 277.248,424.192, 290.56,437.99, 307.2,437.99z M 259.84,35.072
	c-75.802,0-136.986,62.976-136.986,140.8c0,77.568, 61.184,140.518, 136.986,140.518c 75.75,0, 137.19-62.95, 137.19-140.518
	C 397.056,98.048, 335.59,35.072, 259.84,35.072z M 397.056,376.32c-16.64,0-29.952,13.824-29.952,30.72c0,17.152, 13.312,30.694, 29.952,30.694
	c 16.41,0, 29.952-13.542, 29.952-30.694C 427.008,390.144, 413.44,376.32, 397.056,376.32zM 357.376,215.040c-5.12-0.256-8.986-4.096-9.472-8.986c0,0-0.307-21.76-23.296-21.76s-23.296,21.76-23.296,21.76
	c-0.742,5.12-4.838,8.986-9.984,8.986s-9.216-3.84-9.984-8.986c0,0, 0.64-21.76-23.296-21.76S 234.752,206.080, 234.752,206.080
	C 234.010,211.2, 229.888,215.040, 224.768,215.040S 215.552,211.2, 214.81,206.080c0,0-0.307-21.76-23.296-21.76S 168.192,206.080, 168.192,206.080
	c-0.512,4.864-4.352,8.73-9.472,8.986c-4.634-12.058-7.168-25.344-7.168-39.168c0-59.392, 48.64-107.52, 106.496-107.52s 106.496,48.128, 106.496,107.52
	C 364.544,189.696, 362.010,203.008, 357.376,215.040z"  />
<glyph unicode="&#xe002;" d="M 183.578,459.264c-11.776-39.142-21.248-79.59-22.016-120.806c0-19.738, 2.304-39.706, 9.728-57.882
			c 4.864-12.262, 12.288-23.552, 21.504-33.024c 11.008-12.032, 24.32-21.76, 36.352-32.742c 10.496-8.986, 19.968-19.2, 26.88-31.258c 3.328,5.658, 7.168,11.008, 11.52,16.128
			c 18.176,20.992, 43.238,35.072, 59.904,57.6c 9.011,11.52, 14.848,25.062, 18.432,39.168c 5.12,20.48, 5.427,41.728, 3.635,62.438
			c-3.098,34.048-11.264,67.61-20.992,100.352L 183.578,459.264L 183.578,459.264z M 167.962,480l 176.077,0 c 10.035-32, 18.688-64.512, 23.552-97.562
			c 3.098-21.76, 4.659-43.494, 2.842-65.536c-2.33-25.062-10.010-50.176-25.344-70.938C 335.36,232.422, 322.56,221.158, 309.504,210.15
			c-11.494-9.472-23.296-18.944-31.744-31.488c-7.398-10.214-11.238-22.81-11.238-35.354l0-111.36 c0-3.84-0.512-8.192, 0.768-12.058
			c 2.56-9.19, 9.728-16.614, 17.664-21.786c 12.262-7.936, 26.624-12.262, 40.986-15.565c 9.446-2.048, 19.2-3.354, 28.646-4.096c 2.816,0, 5.12-2.56, 4.864-5.376
			c 0.256-2.816-2.586-5.376-5.632-5.12L 161.024-32.051 c-2.048,0.256-4.608-0.512-6.656,1.024c-2.304,1.766-2.56,5.862-0.256,7.936
			c 2.048,2.048, 5.12,1.587, 7.68,1.792c 16.128,1.792, 32.256,4.838, 47.36,10.496c 11.008,4.352, 21.504,10.010, 29.184,18.688c 4.096,5.069, 6.912,11.213, 7.168,17.613
			l0,110.566 c 0.768,12.544-1.28,25.6-7.424,36.634c-6.912,12.518-17.92,22.272-28.672,31.514c-12.544,10.726-25.6,21.248-36.352,33.741
			c-10.24,12.032-18.432,26.138-23.552,41.216c-9.472,27.162-9.984,56.832-7.424,85.248C 146.202,403.968, 156.186,442.368, 167.962,480zM 186.65,412.416l 142.080,0 c 7.731-31.462, 12.083-64.512, 7.168-96.998c-2.816-17.408-8.755-34.816-18.662-49.664
			c-13.85-20.48-35.635-36.352-60.211-41.472c-22.528,4.352-43.008,17.664-57.088,35.354c-10.752,13.798-17.664,30.438-20.992,47.59
			C 172.058,342.298, 177.434,378.368, 186.65,412.416z"  />
<glyph unicode="&#xe003;" d="M 228.352,283.136l 24.576,23.040L 252.39,306.944C 232.704,325.12, 205.824,336.384, 176.128,336.384c-29.952,0-56.832-11.264-76.518-29.44L 99.072,306.176
		l 24.576-23.040l 0.742,0.512C 137.728,295.936, 155.904,303.616, 176.128,303.616c 19.968,0, 38.144-7.68, 51.482-19.968L 228.352,283.136zM 147.942,233.984c0-14.336, 12.8-26.112, 28.186-26.112c 15.616,0, 28.186,11.776, 28.186,26.112c0,14.592-12.544,26.368-28.186,26.368
		C 160.742,260.352, 147.942,248.576, 147.942,233.984zM 25.344,376.32c 38.656,35.84, 91.904,58.112, 150.784,58.112c 58.624,0, 111.872-22.272, 150.528-58.112l 0.512-0.768l 24.883,23.296L 351.488,399.36
		C 306.458,441.344, 244.48,467.2, 176.128,467.2c-68.608,0-130.56-25.856-175.616-67.84L0,398.848l 24.832-23.296L 25.344,376.32zM 277.76,329.472l 24.858,23.040l-0.742,0.512c-32.307,30.208-76.8,48.64-125.696,48.64c-49.152,0-93.696-18.432-125.952-48.64L 49.408,352.512
		l 24.832-23.040l 0.512,0.512c 26.112,24.064, 61.952,38.912, 101.376,38.912c 39.168,0, 75.034-14.848, 101.12-38.912L 277.76,329.472zM 481.562,313.6l-15.898,0 C 448.742,313.6, 435.2,299.52, 435.2,282.368l0-122.368 l-5.862,0 c 2.534,5.709, 4.045,11.981, 4.045,18.688L 433.382,192.512 
		c0,24.576-18.944,44.288-42.24,44.288L 323.84,236.8 c-23.296,0-42.24-19.712-42.24-44.288l0-13.798 c0-6.733, 1.562-13.005, 4.045-18.662L 76.8,160.051 L 76.8,231.168 
		C 76.8,248.32, 63.232,262.4, 46.336,262.4L 30.464,262.4 C 13.568,262.4,0,248.32,0,231.168l0-219.11 C0-5.12, 13.568-19.2, 30.464-19.2l 15.872,0 C 63.232-19.2, 76.8-5.12, 76.8,12.058L 76.8,83.2 
		l 358.4,0 l0-66.048 c0-17.408, 13.542-31.488, 30.438-31.488l 15.898,0 c 16.896,0, 30.413,14.131, 30.413,31.488L 511.949,273.664 C 512,291.072, 498.458,313.6, 481.562,313.6z"  />
<glyph unicode="&#xe004;" d="M 361.472,175.59c-27.136,28.698-64.282,46.592-105.472,46.592
	s-78.362-17.894-105.472-46.592L 149.504,174.592l 34.304-36.352l 0.768,0.742c 18.432,19.456, 43.52,31.488, 71.424,31.488s 52.992-12.058, 71.424-31.488l 0.768-0.742l 34.304,36.352
	L 361.472,175.59z M 430.080,248.576c-44.8,47.616-106.214,76.8-174.080,76.8s-129.28-29.184-174.080-76.8L 81.152,247.808l 34.304-36.608l 0.768,0.742
	c 35.814,38.144, 85.248,61.696, 139.776,61.696s 103.962-23.552, 139.776-61.696l 0.768-0.742l 34.304,36.608L 430.080,248.576z M 498.458,321.562C 436.224,387.84, 350.438,428.8, 256,428.8
	S 75.776,387.84, 13.542,321.562L 12.8,320.742l 34.304-36.608l 0.768,1.050C 101.376,341.99, 174.848,377.088, 256,377.088s 154.624-35.098, 208.128-91.904l 0.768-1.050l 34.304,36.608
	L 498.458,321.562z M 256.256,102.4c-21.504,0-38.912-18.688-38.912-41.728c0-22.784, 17.408-41.472, 38.912-41.472s 38.912,18.688, 38.912,41.472
	C 295.142,83.712, 277.76,102.4, 256.256,102.4z"  />
<glyph unicode="&#xe005;" d="M 25.6,454.4L 102.4,454.4L 102.4,224L 25.6,224zM 102.4,224L 179.2,224L 179.2-6.4L 102.4-6.4zM 179.2,454.4L 256,454.4L 256,224L 179.2,224zM 256,224L 332.8,224L 332.8-6.4L 256-6.4zM 332.8,454.4L 409.6,454.4L 409.6,224L 332.8,224zM 409.6,224L 486.4,224L 486.4-6.4L 409.6-6.4z"  />
<glyph unicode="&#xe006;" d="M0,130.048c0-75.776, 114.688-154.88, 256-154.88s 256,79.104, 256,154.88
	c0,17.664-6.144,34.586-17.408,49.92L 17.408,179.968 C 6.144,164.634,0,147.738,0,130.048z M 195.072,352.282l-36.634-146.688L 256,205.594 L 256,286.72 l 128,25.6L 384,359.168 L 188.928,359.168 L 195.072,352.282z
	 M 179.2,410.368l0-51.2 l 76.8,0 L 256,409.088 L 304.64,462.080L 292.608,472.832L 231.68,410.368L 179.2,410.368 z M 329.19,216.576c0-16.128, 13.594-29.184, 30.464-29.184c 16.896,0, 30.464,13.056, 30.464,29.184
	c0,9.216-4.608,17.664-11.52,22.81l-18.944,35.584l-18.918-35.584C 333.542,234.24, 329.19,225.792, 329.19,216.576z"  />
<glyph unicode="&#xe007;" d="M 123.418-1.306c-16.64,11.008-19.2,39.142,0,49.152C 138.266,34.739, 134.682,12.774, 123.418-1.306zM 179.738,394.24c 26.88,29.184, 55.296,56.832, 82.432,85.76l 13.568-13.542C 249.882,439.808, 223.77,413.466, 197.914,386.56
				c-9.216-8.192-12.544-20.48-15.36-32.256c-7.936-33.562-9.984-68.352-12.032-102.912c 17.664-18.688, 36.096-36.864, 54.016-55.526c 37.632,1.28, 76.032,3.814, 112.384,15.104
				c 14.387,3.584, 24.064,15.846, 34.304,25.856c 20.966,22.528, 43.034,44.058, 64.256,66.56l 12.544-14.080c-25.856-26.368-51.917-52.736-77.824-79.616
				c-11.008-12.006-27.162-17.408-42.496-21.248c-36.045-8.166-73.216-10.214-110.336-11.75c-20.992,22.784-44.288,43.008-63.744,67.072
				c-2.816,21.504, 1.28,43.802, 2.816,65.562C 160.794,338.15, 162.586,369.638, 179.738,394.24zM 189.21,302.592c 74.496,0.512, 148.992,0, 223.488,0.256c-17.638-19.968-37.12-38.144-54.989-57.6
				c-7.731-7.424-14.592-16.128-25.088-19.2c-32.256-10.010-66.048-12.288-99.328-14.362c-17.408,13.056-32,29.696-46.080,46.362
				C 186.65,272.896, 188.442,287.744, 189.21,302.592zM 137.754,231.654c 23.296-22.784, 45.824-46.336, 68.864-69.888c-13.568-12.8-25.344-27.366-39.936-38.656
				c-13.056-7.962-26.88,2.304-35.584,12.518c-13.824,16.128-38.656,29.978-33.024,55.296C 111.13,204.8, 124.442,218.086, 137.754,231.654zM 123.418-1.306c 11.264,14.080, 14.848,36.045,0,49.152C 104.218,37.862, 106.778,9.702, 123.418-1.306z M 65.818,3.789
				c-9.216,44.058, 17.92,83.738, 42.24,117.53c 20.48-28.416, 41.728-59.392, 44.8-96c 1.536-20.531-5.632-45.568-26.368-52.992
				C 102.17-40.474, 70.682-23.322, 65.818,3.789z"  />
<glyph unicode="&#xe008;" d="M 296.806,17.229L 215.194,17.229 c-3.123,0-5.606-2.509-5.606-5.632C 209.587-12.442, 230.4-32, 256-32s 46.413,19.558, 46.413,43.597
		C 302.413,14.72, 299.904,17.229, 296.806,17.229zM 392.32,143.309c 4.71,13.466, 7.066,27.341, 7.066,41.344l0,113.408 c0,57.83-38.81,108.288-96.998,126.822L 302.387,436.326 
		C 302.413,460.39, 281.6,480, 256,480S 209.587,460.39, 209.587,436.326l0-11.418 C 151.398,406.323, 112.614,355.84, 112.614,298.061l0-113.408 c0-14.080, 2.381-27.93, 7.066-41.344
		c-38.4-2.074-67.533-21.658-67.533-46.234l0-40.832 c0-3.098, 2.509-5.632, 5.632-5.632l 396.467,0 c 3.123,0, 5.632,2.534, 5.632,5.632l0,40.832 
		C 459.853,121.651, 430.694,141.235, 392.32,143.309z"  />
<glyph unicode="&#xe009;" d="M 293.069,198.656c-25.088,0-45.338,18.944-45.338,42.24
	c0,23.040, 20.25,41.984, 45.338,41.984c 25.062,0, 45.338-18.918, 45.338-41.984C 338.406,217.6, 318.157,198.656, 293.069,198.656z M 188.851,295.142
	c-25.062,0-45.338,18.944-45.338,42.24c0,23.040, 20.25,42.010, 45.338,42.010S 234.189,360.448, 234.189,337.408C 234.189,314.112, 213.939,295.142, 188.851,295.142z
	 M 168.627,240.896c0,10.24, 8.96,18.688, 20.224,18.688s 20.48-8.448, 20.48-18.688c0-10.496-9.19-18.944-20.48-18.944S 168.627,230.4, 168.627,240.896z M 188.851,102.144
	c-25.062,0-45.338,18.944-45.338,42.24c0,23.014, 20.25,41.958, 45.338,41.958s 45.338-18.918, 45.338-41.958C 234.189,121.088, 213.939,102.144, 188.851,102.144z
	 M 84.685,198.656c-25.088,0-45.338,18.944-45.338,42.24c0,23.040, 20.224,41.984, 45.338,41.984c 25.062,0, 45.542-18.918, 45.542-41.984
	C 130.227,217.6, 109.773,198.656, 84.685,198.656z M 511.693,52.992c-7.168,31.744-25.088,55.040-53.76,69.094c-34.048,16.64-78.362,17.152-119.296,11.802
	c 24.55,29.696, 39.142,66.79, 39.142,107.008c0,96.742-84.48,175.104-188.928,175.104c-104.166,0-188.928-78.362-188.928-175.104c0-96.768, 84.762-175.36, 188.928-175.36
	c 30.464,0, 59.136,6.656, 84.736,18.662c 47.923,13.824, 123.418,28.416, 166.682,6.938c 18.432-8.986, 29.67-23.834, 34.304-45.082
	c 1.766-8.422, 9.728-14.080, 18.432-14.080l 3.84,0.256C 507.11,34.304, 513.741,43.52, 511.693,52.992z"  />
<glyph unicode="&#xe00a;" d="M 381.21,290.816L 130.816,290.816 C 65.638,290.816, 12.8,237.978, 12.8,172.8
	c0-65.178, 52.838-118.016, 118.016-118.016c 56.755,0, 104.090,40.090, 115.405,93.491l 19.558,0 c 11.29-53.402, 58.65-93.491, 115.405-93.491
	c 65.178,0, 117.99,52.838, 117.99,118.016C 499.2,237.978, 446.387,290.816, 381.21,290.816z M 180.71,167.91L 140.646,167.91 l0-40.064 c0-7.066-5.734-12.826-12.8-12.826
	c-7.091,0-12.826,5.76-12.826,12.826l0,40.064 L 74.931,167.91 c-7.066,0-12.826,5.734-12.826,12.8c0,7.091, 5.76,12.826, 12.826,12.826l 40.064,0 L 114.995,233.6 
	c0,7.066, 5.734,12.8, 12.826,12.8c 7.066,0, 12.8-5.734, 12.8-12.8l0-40.064 l 40.064,0 c 7.066,0, 12.8-5.734, 12.8-12.826
	C 193.536,173.619, 187.776,167.91, 180.71,167.91z M 338.611,155.187c-13.158,0-23.808,10.65-23.808,23.808s 10.65,23.808, 23.808,23.808s 23.808-10.65, 23.808-23.808
	S 351.744,155.187, 338.611,155.187z M 387.405,106.394c-13.158,0-23.808,10.65-23.808,23.808s 10.65,23.808, 23.808,23.808s 23.808-10.65, 23.808-23.808
	S 400.538,106.394, 387.405,106.394z M 387.405,204.006c-13.158,0-23.808,10.65-23.808,23.808s 10.65,23.808, 23.808,23.808s 23.808-10.65, 23.808-23.808
	S 400.538,204.006, 387.405,204.006z M 436.198,155.187c-13.158,0-23.808,10.65-23.808,23.808s 10.65,23.808, 23.808,23.808s 23.808-10.65, 23.808-23.808
	S 449.357,155.187, 436.198,155.187zM 268.851,341.811L 268.851,393.216L 243.149,393.216L 243.149,341.811L 208.614,341.811L 208.614,316.416L 303.386,316.416L 303.386,341.811 z"  />
<glyph unicode="&#xe00b;" d="M 499.2,278.733c0,5.402-2.611,10.47-6.938,13.645L 265.984,457.83c-5.939,4.352-14.003,4.352-19.942,0l-226.304-165.453
	C 15.36,289.203, 12.8,284.134, 12.8,278.733L 12.8,3.84 c0-9.318, 7.552-16.922, 16.896-16.922l 452.608,0 c 4.506,0, 8.806,1.766, 11.955,4.966
	C 497.408-4.941, 499.2-0.64, 499.2,3.84L 499.2,278.733 z M 256,423.245l 209.408-153.088l0-20.326 l-143.642-103.501l 114.611-73.037c 7.91-4.966, 10.24-15.437, 5.299-23.322
	c-3.2-5.094-8.704-7.936-14.31-7.936c-3.072,0-6.195,0.819-9.011,2.611l-162.15,101.939l-161.869-101.914
	c-2.79-1.766-5.914-2.637-8.986-2.637c-5.606,0-11.11,2.79-14.336,7.936c-4.966,7.91-2.611,18.33, 5.299,23.27l 114.33,73.062L 46.592,249.856
	L 46.592,270.157 L 256,423.245z"  />
<glyph unicode="&#xe00c;" d="M 434.611,126.899l-15.181,0 l-48.87,72.576L 238.234,199.475 l-48.896-72.55L 174.157,126.925 c-7.987,0-14.438-6.477-14.438-14.464l0-85.709 
	c0-8.013, 6.477-14.438, 14.438-14.438l0-29.798 C 174.157-25.523, 180.659-32, 188.621-32l 15.898,0 c 8.013,0, 14.464,6.477, 14.464,14.438l0,29.798 l 170.701,0 l0-29.798 
	c0-8.013, 6.502-14.438, 14.438-14.438l 15.898,0 c 8.013,0, 14.438,6.477, 14.438,14.438l0,29.798 c 8.013,0, 14.413,6.502, 14.413,14.438l0,85.76 
	C 449.024,120.448, 442.573,126.899, 434.611,126.899z M 196.582,58.726c-10.317,0-18.662,8.371-18.662,18.662c0,10.24, 8.346,18.662, 18.662,18.662
	c 10.317,0, 18.662-8.346, 18.662-18.662C 215.245,67.123, 206.899,58.726, 196.582,58.726z M 215.168,133.888L 245.76,183.194l 117.094,0 l 30.643-49.306L 215.168,133.888 z
	 M 412.16,58.726c-10.266,0-18.662,8.371-18.662,18.662c0,10.266, 8.346,18.662, 18.662,18.662c 10.317,0, 18.662-8.346, 18.662-18.662
	C 430.822,67.123, 422.477,58.726, 412.16,58.726zM 62.976,480L 88.576,480L 88.576,88.576L 62.976,88.576zM 370.176,316.314c0,0-104.346-50.176-128-28.57c-37.606,34.355-128-13.696-128-13.696l0,166.656 c0,0, 92.928,39.962, 128,13.696
	c 36.864-27.597, 128,2.97, 128,2.97L 370.176,316.314 z"  />
<glyph unicode="&#xe00d;" d="M 473.6,330.010l0-160.794 c0-19.2-15.36-34.79-34.048-34.79L 72.448,134.426 
	c-18.688,0-34.048,15.59-34.048,34.79L 38.4,330.010 C 38.4,349.21, 53.76,364.8, 72.448,364.8l 367.104,0 C 458.24,364.8, 473.6,349.21, 473.6,330.010z M 465.152,57.6
	c 18.688,0, 34.048,41.19, 34.048,60.39L 499.2,355.61 c0,19.2-15.36,34.79-34.048,34.79L 46.848,390.4 C 28.16,390.4, 12.8,374.81, 12.8,355.61l0-235.264 c0-19.2, 15.36-62.72, 34.048-62.72
	L 192,57.626 l 102.4,0 L 465.152,57.626 z M 243.2,108.8l 25.6,0 l0-25.6 l-25.6,0 L 243.2,108.8 z"  />
<glyph unicode="&#xe00e;" d="M 135.68,313.6L 135.68,288L 89.6,288L 89.6,211.2L 135.68,211.2L 135.68,185.6L 64,185.6L 64,313.6 		zM 194.56,262.4l 25.6,0 l0,25.6 l-25.6,0 L 194.56,262.4 z M 194.56,185.6l-25.6,0 l0,128 l 76.8,0 l0-122.88 l-25.6,0 L 220.16,236.8 l-25.6,0 L 194.56,185.6 zM 276.224,313.6L 348.39,313.6L 348.39,288L 325.12,288L 325.12,185.6L 299.52,185.6L 299.52,288L 276.224,288 		zM 430.080,313.6l 25.6,0 l0-102.4 l-25.6,0 L 430.080,313.6 z M 404.48,211.2l-25.6,0 l0,102.4 l 25.6,0 L 404.48,211.2 l 25.6,0 l0-25.6 l-25.6,0 L 404.48,211.2 zM 473.6,330.010l0-160.794 c0-19.2-15.36-34.79-34.048-34.79L 72.448,134.426 
		c-18.688,0-34.048,15.59-34.048,34.79L 38.4,330.010 C 38.4,349.21, 53.76,364.8, 72.448,364.8l 367.104,0 C 458.24,364.8, 473.6,349.21, 473.6,330.010z M 465.152,57.6
		c 18.688,0, 34.048,41.19, 34.048,60.39L 499.2,355.61 c0,19.2-15.36,34.79-34.048,34.79L 46.848,390.4 C 28.16,390.4, 12.8,374.81, 12.8,355.61l0-235.264 
		c0-19.2, 15.36-62.72, 34.048-62.72L 192,57.626 l 102.4,0 L 465.152,57.626 z M 243.2,108.8l 25.6,0 l0-25.6 l-25.6,0 L 243.2,108.8 z"  />
<glyph unicode="&#xe00f;" d="M 473.6,330.010l0-160.819 c0-19.2-15.36-34.765-34.048-34.765L 72.448,134.426 c-18.688,0-34.048,15.565-34.048,34.765L 38.4,330.010 
	C 38.4,349.21, 53.76,364.8, 72.448,364.8l 367.104,0 C 458.24,364.8, 473.6,349.21, 473.6,330.010z M 465.152,57.6c 18.688,0, 34.048,41.19, 34.048,60.39L 499.2,355.61 
	c0,19.2-15.36,34.79-34.048,34.79L 46.848,390.4 C 28.16,390.4, 12.8,374.81, 12.8,355.61l0-235.264 c0-19.2, 15.36-62.72, 34.048-62.72L 192,57.626 l 102.4,0 L 465.152,57.6L 465.152,57.6z
	 M 243.2,108.8l 25.6,0 l0-25.6 l-25.6,0 L 243.2,108.8 z"  />
<glyph unicode="&#xe010;" d="M 346.24,480L 165.734,480 C 109.030,480, 63.053,434.022, 63.053,377.318l0-291.686 c0-28.314, 22.963-51.379, 51.328-51.379l 0.358,0 l0-40.653 
	c0-14.182, 11.52-25.651, 25.677-25.651l 25.805,0 c 14.182,0, 25.651,11.469, 25.651,25.677L 191.872,34.304 l 128.051,0 l0-40.653 c0-14.208, 11.469-25.677, 25.677-25.677l 25.779,0 
	c 14.234,0, 25.677,11.469, 25.677,25.677L 397.056,34.304 l 0.538,0 c 28.339,0, 51.354,22.989, 51.354,51.405L 448.947,377.318 C 448.947,434.022, 402.97,480, 346.24,480z M 196.762,456.243
	l 118.426,0 l0-25.677 L 196.762,430.566 L 196.762,456.243 z M 148.659,105.907c-18.483,0-33.459,15.002-33.459,33.459C 115.2,157.85, 130.176,172.8, 148.659,172.8
	c 18.483,0, 33.459-14.976, 33.459-33.459C 182.118,120.858, 167.117,105.907, 148.659,105.907z M 363.162,105.907c-18.483,0-33.459,15.002-33.459,33.459
	c0,18.534, 14.976,33.485, 33.459,33.485c 18.534,0, 33.51-14.976, 33.51-33.485C 396.621,120.858, 381.619,105.907, 363.162,105.907z M 396.595,252.006
	c0-14.131-11.443-25.6-25.6-25.6L 141.005,226.406 c-14.157,0-25.6,11.469-25.6,25.6L 115.405,379.597 c0,14.131, 11.443,25.6, 25.6,25.6l 229.99,0 c 14.157,0, 25.6-11.469, 25.6-25.6L 396.595,252.006 z"  />
<glyph unicode="&#xe012;" d="M 371.84,480L 140.134,480 C 83.43,480, 37.453,434.022, 37.453,377.318l0-291.686 c0-28.314, 22.963-51.379, 51.328-51.379l 0.358,0 l0-40.653 
	c0-14.182, 11.52-25.651, 25.677-25.651l 25.805,0 c 14.182,0, 25.651,11.469, 25.651,25.677L 166.272,34.304 l 179.251,0 l0-40.653 c0-14.208, 11.469-25.677, 25.677-25.677l 25.779,0 
	c 14.234,0, 25.677,11.469, 25.677,25.677L 422.656,34.304 l 0.538,0 c 28.339,0, 51.354,22.989, 51.354,51.405L 474.547,377.318 C 474.547,434.022, 428.57,480, 371.84,480z M 171.162,456.243
	l 169.626,0 l0-25.677 L 171.162,430.566 L 171.162,456.243 z M 123.059,105.907c-18.483,0-33.459,15.002-33.459,33.459C 89.6,157.85, 104.576,172.8, 123.059,172.8
	c 18.483,0, 33.459-14.976, 33.459-33.459C 156.518,120.858, 141.517,105.907, 123.059,105.907z M 388.762,105.907c-18.483,0-33.459,15.002-33.459,33.459
	c0,18.534, 14.976,33.485, 33.459,33.485c 18.534,0, 33.51-14.976, 33.51-33.485C 422.221,120.858, 407.219,105.907, 388.762,105.907z M 422.195,252.006
	c0-14.131-11.443-25.6-25.6-25.6L 115.405,226.406 c-14.157,0-25.6,11.469-25.6,25.6L 89.805,379.597 c0,14.131, 11.443,25.6, 25.6,25.6l 281.19,0 c 14.157,0, 25.6-11.469, 25.6-25.6L 422.195,252.006 z"  />
<glyph unicode="&#xe013;" d="M 423.040,480L 88.934,480 C 32.23,480, 37.453,434.022, 37.453,377.318l0-291.686 c0-28.314, 22.963-51.379, 51.328-51.379l 0.358,0 l0-40.653 
	c0-14.182, 11.52-25.651, 25.677-25.651l 25.805,0 c 14.182,0, 25.651,11.469, 25.651,25.677L 166.272,34.304 l 179.251,0 l0-40.653 c0-14.208, 11.469-25.677, 25.677-25.677l 25.779,0 
	c 14.234,0, 25.677,11.469, 25.677,25.677L 422.656,34.304 l 0.538,0 c 28.339,0, 51.354,22.989, 51.354,51.405L 474.547,377.318 C 474.547,434.022, 479.77,480, 423.040,480z M 94.362,454.4
	l 323.226,0 l0-23.834 L 94.362,430.566 L 94.362,454.4 z M 115.405,405.197l 281.19,0 c 14.157,0, 25.6-11.469, 25.6-25.6l0-22.016 L 89.805,357.581 l0,22.016 C 89.805,393.728, 101.248,405.197, 115.405,405.197z
	 M 123.059,105.907c-18.483,0-33.459,15.002-33.459,33.459C 89.6,157.85, 104.576,172.8, 123.059,172.8c 18.483,0, 33.459-14.976, 33.459-33.459
	C 156.518,120.858, 141.517,105.907, 123.059,105.907z M 115.405,226.406c-14.157,0-25.6,11.469-25.6,25.6L 89.805,313.293 l 332.39,0 l0-61.286 c0-14.131-11.443-25.6-25.6-25.6L 115.405,226.406 z
	 M 388.762,105.907c-18.483,0-33.459,15.002-33.459,33.459c0,18.534, 14.976,33.485, 33.459,33.485c 18.534,0, 33.51-14.976, 33.51-33.485
	C 422.221,120.858, 407.219,105.907, 388.762,105.907z"  />
<glyph unicode="&#xe014;" d="M 101.12,44.8l 38.656-76.8l 221.414,0 l 38.682,76.8L 101.12,44.8 z M 62.208,121.6l 29.184-51.2L 409.6,70.4 l 29.21,51.2
	L 264.96,121.6 c 4.864,17.92, 7.68,37.888, 7.68,58.624c0,21.786-2.816,59.136-8.192,77.568c 4.352-1.306, 8.96-1.792, 13.568-1.792c 27.648,0, 49.946,21.504, 49.946,48.128
	c0,24.576-19.482,45.082-44.288,47.616L 283.674,352 c0,6.144-0.512,12.058-1.792,17.638c 14.362,8.448, 24.064,23.552, 24.064,40.986c0,26.624-22.528,48.128-49.92,48.128
	c-18.176,0-33.792-9.472-42.496-23.296C 207.36,436.762, 201.472,437.248, 195.072,437.248L 194.816,437.248 C 192,461.312, 171.008,480, 145.408,480C 117.76,480, 95.488,458.496, 95.488,432.128
	c0-16.614, 8.448-30.976, 21.504-39.68c-3.328-6.144-6.144-12.8-7.936-19.712c-2.56,0.256-5.376,0.512-7.936,0.512C 73.472,373.248, 51.2,351.744, 51.2,325.376
	c0-26.624, 22.272-48.128, 49.92-48.128c 12.8,0, 24.576,4.838, 33.28,12.544c 2.56-2.304, 5.12-4.352, 7.68-6.144C 133.888,274.944, 128.768,263.424, 128.768,250.624
	c0-26.368, 22.272-47.872, 49.664-47.872c 27.648,0, 49.92,21.504, 49.92,47.872c0,7.424-1.792,14.336-4.864,20.48l 7.936,3.072c 5.12-20.48, 7.936-59.904, 7.936-83.2
	c0-24.576-3.072-48.128-8.96-69.376L 62.208,121.6 z M 150.784,341.248c0,23.552, 19.968,42.752, 44.288,42.752c 24.576,0, 44.288-19.2, 44.288-42.752S 219.648,298.752, 195.072,298.752
	C 170.752,298.752, 150.784,317.696, 150.784,341.248z M 313.6,182.81C 410.624,143.872, 460.8,266.752, 460.8,266.752c-143.104,18.944-163.072-55.296-165.658-71.68
	c 17.434,5.12, 55.578,52.736, 82.688,42.214C 381.21,236.058, 358.4,195.328, 313.6,182.81z"  />
<glyph unicode="&#xe015;" d="M 410.854,221.44c0-75.776-65.997-137.19-147.43-137.19
	c-81.408,0-147.456,61.414-147.456,137.19L 115.968,387.84 C 68.838,348.698, 42.24,289.792, 42.24,224c0-117.76, 95.744-213.248, 213.76-213.248c 117.99,0, 213.76,95.488, 213.76,213.248
	c0,57.344-22.042,109.338-58.906,147.738L 410.854,221.44 z M 366.592,406.554C 334.362,426.010, 296.448,437.248, 256,437.248c-34.304,0-66.816-8.166-95.744-22.502l0-188.186 
	c0-54.272, 46.080-98.048, 103.168-98.048c 57.062,0, 103.168,43.776, 103.168,98.048L 366.592,406.554 z"  />
<glyph unicode="&#xe016;" d="M 85.248,300.8C 66.56,300.8, 51.2,285.952, 51.2,267.52l0-266.24 C 51.2-17.152, 66.56-32, 85.248-32l 213.504,0 
		C 317.44-32, 332.8-17.152, 332.8,1.28l0,23.578 c 12.058-1.562, 25.6-1.306, 39.962-1.306c 53.248,0, 88.038,52.506, 88.038,116.992S 417.562,257.28, 364.058,257.28
		c-14.106,0-27.648,0.282-39.706-1.766L 324.352,267.52 c0,18.432-15.36,33.28-34.304,33.28L 191.488,300.8 l 21.504-51.2L 256,249.6 l 22.784-89.088l-91.136-25.6L 164.864,224l 34.304,18.458L 176.384,300.8L 85.248,300.8 z
		 M 332.8,74.24L 332.8,198.4 c 8.192,9.728, 11.008,14.592, 25.6,14.592c 31.488,0, 56.858-24.858, 56.858-64.768s-37.658-80.128-48.41-80.128C 352.256,68.096, 340.992,68.096, 332.8,74.24
		zM 119.552,300.8c0,0-9.728,58.88, 68.096,89.088C 239.616,410.112, 233.216,480, 233.216,480
		s 31.488-78.080-34.048-112.41C 150.016,341.76, 164.864,300.8, 164.864,300.8L 119.552,300.8 zM 210.432,300.8c0,0, 3.584,31.488, 34.304,44.544c 22.528,9.728, 22.528,45.542, 22.528,45.542
		S 273.664,354.304, 256,334.080C 238.336,314.112, 244.736,300.8, 244.736,300.8L 210.432,300.8 z"  />
<glyph unicode="&#xe017;" d="M 301.056,331.546c0-32.768, 26.112-59.136, 58.624-59.136
				c 32.282,0, 58.368,26.342, 58.368,59.136c0,32.538-26.112,58.88-58.368,58.88C 327.142,390.426, 301.056,364.083, 301.056,331.546z M 41.216,263.168
				c-9.216-6.656-10.752-19.456-3.84-28.902l 1.792-2.586c 7.168-9.216, 19.968-11.52, 28.928-5.12l 84.224,60.954c 11.008-0.768, 43.008,2.304, 32.256-39.962
				l-13.312-8.96l-71.424-52.992l 327.424,0 L 193.024,349.722c-7.168,9.19-20.48,10.24-29.952,3.328L 41.216,263.168zM 196.685,108.288c-28.314,0-51.226,13.517-52.224,14.131c-1.638,1.152-28.8,22.246-62.515,22.246
				c-33.946,0-60.851-21.043-61.133-21.274c-5.53-4.403-13.594-3.533-17.971,2.022c-4.403,5.504-3.533,13.517, 1.971,17.946
				c 1.382,1.101, 33.971,26.906, 77.158,26.906c 42.419,0, 75.008-25.19, 77.030-26.829l0,0c 0.282,0, 19.021-10.522, 39.578-9.523
				c 18.995,0.538, 47.642,14.362, 57.088,19.635c 3.507,1.869, 33.050,17.766, 57.907,16.717c 22.298-0.794, 30.694-4.813, 58.522-17.997l 9.421-4.48
				c 31.283-14.72, 53.478-13.85, 53.99-13.901c-0.256,0, 31.386,4.48, 52.634,21.504c 5.504,4.403, 13.542,3.558, 17.971-1.971
				c 4.429-5.504, 3.558-13.568-1.971-17.971c-27.059-21.709-64.64-26.803-66.253-27.034c-2.074-0.102-29.363-1.613-67.277,16.23l-9.498,4.506
				c-26.65,12.646-31.462,14.925-48.461,15.514c-15.104,0.947-37.35-9.626-44.698-13.568c-1.408-0.794-39.501-21.939-68.685-22.784
				C 198.4,108.288, 197.53,108.288, 196.685,108.288zM 199.757,44.8c-28.518,0-51.405,13.261-52.403,13.85c-1.818,1.28-28.723,22.528-62.618,22.528
				c-33.971,0-60.544-21.222-60.8-21.453c-5.504-4.48-13.542-3.584-17.997,1.869c-4.454,5.504-3.61,13.542, 1.869,18.022
				c 1.357,1.101, 33.971,27.162, 76.928,27.162c 42.624,0, 74.906-25.344, 77.107-27.11C 161.664,79.718, 178.611,70.4, 199.757,70.4
				c 0.614,0, 1.254,0, 1.869,0.026c 18.97,0.538, 47.642,14.362, 57.088,19.635c 3.507,1.869, 33.971,17.459, 57.882,16.717
				c 22.246-0.768, 30.592-4.736, 58.266-17.869l 9.728-4.608C 415.718,69.632, 437.811,70.4, 438.323,70.4c-0.256,0, 31.386,4.48, 52.915,21.581
				c 5.504,4.403, 13.568,3.507, 17.971-2.074c 4.403-5.53, 3.482-13.568-2.074-17.971c-27.29-21.683-64.845-26.778-66.458-27.008
				c-1.869-0.179-29.184-1.613-66.995,16.23l-9.805,4.634c-26.47,12.544-31.258,14.822-48.205,15.411c-14.592,1.152-37.325-9.574-44.672-13.568
				c-1.434-0.794-39.501-21.939-68.685-22.784C 201.498,44.8, 200.627,44.8, 199.757,44.8z"  />
<glyph unicode="&#xe018;" d="M 413.312,419.994L 98.688,419.994 C 44.262,419.994,0,375.706,0,321.28l0-165.811 c0-48.179, 34.662-88.346, 80.384-96.947l0-30.515 l 352.102,0 l0,30.669 
		C 477.747,67.61, 512,107.597, 512,155.469L 512,321.28 C 512,375.706, 467.738,419.994, 413.312,419.994z M 256,54.528c-7.654,0-13.875,6.221-13.875,13.926
		c0,7.654, 6.246,13.85, 13.875,13.85c 7.68,0, 13.901-6.195, 13.901-13.85C 269.901,60.749, 263.68,54.528, 256,54.528z M 413.312,101.325L 98.688,101.325 
		c-29.85,0-54.144,24.294-54.144,54.144L 44.544,321.28 c0,29.875, 24.294,54.118, 54.144,54.118l 314.573,0 c 29.85,0, 54.144-24.243, 54.144-54.118l0-165.811 l 0.026,0 
		C 467.43,125.619, 443.162,101.325, 413.312,101.325zM 195.354,179.712c-9.805,9.754-21.248,17.818-34.099,24.064c-5.069,2.432-12.851-0.768-17.51-7.168
		c-4.659-6.349-4.378-13.491, 0.666-15.949L 144.384,180.659 c 11.469-5.555, 21.683-12.8, 30.387-21.581c 8.858-8.781, 16.102-19.123, 21.734-30.72
		c 2.406-5.043, 9.6-5.248, 16.026-0.538c 0.922,0.589, 1.741,1.357, 2.534,2.125c 4.659,4.659, 6.707,11.085, 4.659,15.36
		C 213.35,158.259, 205.184,169.754, 195.354,179.712zM 184.832,355.558C 178.944,356.608, 171.315,351.923, 167.859,345.19c-3.533-6.733-1.587-13.056, 4.275-14.080L 172.083,331.059
		c 47.078-8.294, 86.554-28.467, 116.403-58.342c 29.901-29.901, 50.099-69.35, 58.342-116.403c 1.050-5.888, 7.347-7.859, 14.208-4.301
		c 1.818,0.998, 3.533,2.304, 4.915,3.686c 3.917,3.866, 6.118,9.062, 5.453,13.363c-8.909,50.125-30.362,92.39-62.259,124.288
		C 277.299,325.222, 235.034,346.675, 184.832,355.558zM 182.323,277.709C 176.819,279.475, 169.062,275.482, 164.992,268.877C 160.87,262.349, 161.997,255.539, 167.45,253.798
		c 24.806-7.936, 46.285-20.992, 63.616-38.349c 17.408-17.408, 30.515-39.091, 38.579-64.102c 1.741-5.504, 8.525-6.605, 15.155-2.458
		c 1.408,0.845, 2.611,1.843, 3.738,2.944c 4.25,4.301, 6.502,10.138, 5.094,14.438c-8.858,27.213-23.091,50.79-42.061,69.734
		C 232.806,254.848, 209.434,269.133, 182.323,277.709z"  />
<glyph unicode="&#xe019;" d="M 405.76,135.962L 105.472,135.962 L 105.472,246.528 c-9.216-7.936-20.736-13.568-33.28-15.386l0-207.846 c0-9.216, 7.424-16.896, 16.64-16.896L 422.4,6.4 
	c 9.19,0, 16.64,7.68, 16.64,16.896L 439.040,231.142 c-12.544,2.048-24.064,7.962-33.306,16.154L 405.734,135.962 L 405.76,135.962z M 432.128,406.81
	c 2.586,0, 4.864-0.538, 6.938-1.306L 439.066,424.704 c0,9.216-7.45,16.896-16.614,16.896L 88.832,441.6 c-9.216,0-16.64-7.68-16.64-16.896l0-19.456 
	c 2.304,1.024, 4.864,1.562, 7.68,1.562L 432.128,406.81 z M 432.128,386.56l-26.368,0 L 105.472,386.56 l-25.6,0 L 12.8,313.6c0-27.392, 21.76-49.408, 48.64-49.408c 5.632,0, 11.008,0.998, 15.872,2.79
	l 0.512,0.256l 4.608,1.792l 0.512,0.256L 87.296,271.872l 0.256,0.256c 6.144,3.814, 11.52,9.216, 15.36,15.616l 2.56,5.094C 108.544,299.238, 110.080,306.176, 110.080,313.6
	c0-27.392, 21.76-49.408, 48.64-49.408c 26.88,0, 48.64,22.016, 48.64,49.408c0-27.392, 21.786-49.408, 48.64-49.408s 48.64,21.99, 48.64,49.408c0-27.392, 21.76-49.408, 48.589-49.408
	s 48.64,21.99, 48.64,49.408c0-8.704, 2.304-16.896, 6.093-24.038L 408.576,288.512l 2.304-3.584l 1.024-1.024l 2.56-3.328l 0.794-0.768l 3.558-3.584l 0.307-0.282
	c 4.045-3.558, 9.011-6.4, 14.362-8.422l 0.256-0.282l 5.402-1.536c 3.789-1.024, 7.68-1.536, 11.494-1.536c 26.906,0, 48.614,21.99, 48.614,49.408
	L 432.128,386.56z"  />
<glyph unicode="&#xe01a;" d="M 454.912,480L 31.488,480 C 21.248,480, 12.8,471.808, 12.8,461.824l0-475.648 C 12.8-23.808, 21.248-32, 31.488-32l 346.624,0 c 10.24,0, 18.688,8.192, 18.688,18.176
		L 396.8,326.4 l 50.458,0 C 457.728,326.4, 473.6,334.592, 473.6,344.576L 473.6,461.824 C 473.6,471.808, 465.152,480, 454.912,480z M 448,352l-46.080,0 c-10.24,0-30.72,1.024-30.72-8.96L 371.2-6.4 l-307.2,0 L 64,428.8 l 384,0 L 448,352 zM 455.424,300.8L 422.4,300.8 l0-153.6 l 33.024,0 c 10.214,0, 18.176,8.192, 18.176,18.176L 473.6,282.624 C 473.6,292.608, 465.638,300.8, 455.424,300.8zM 455.424,121.6L 422.4,121.6 l0-153.6 l 32.512,0 c 10.24,0, 18.688,8.192, 18.688,18.176l0,117.248 C 473.6,113.408, 465.638,121.6, 455.424,121.6zM 93.952,160L 323.072,160L 323.072,134.4L 93.952,134.4zM 93.952,96L 323.072,96L 323.072,70.4L 93.952,70.4zM 93.952,224L 323.072,224L 323.072,198.4L 93.952,198.4zM 131.635,319.002l 40.883,0 L 184.832,282.726l 15.898,0 L 161.382,398.029L 143.59,398.029 L 104.243,282.726l 15.59,0 L 131.635,319.002z M 145.997,364.006
		c 2.227,7.014, 4.096,14.029, 5.658,20.864l 0.512,0 c 1.715-6.656, 3.405-13.517, 5.99-21.043l 11.29-33.178L 134.707,330.65 L 145.997,364.006z"  />
<glyph unicode="&#xe01b;" d="M 42.624,53.939c 6.144-42.752, 106.496-68.352, 224.256-56.806c 118.042,11.238, 208.64,55.27, 202.496,98.048
		c-5.862,43.008-106.496,68.352-224.23,56.806C 127.36,140.774, 36.454,96.691, 42.624,53.939z M 119.424,74.47c-1.536,11.008, 21.504,22.221, 51.738,25.318
		c 30.208,2.79, 56.064-3.61, 57.6-14.566s-21.786-22.528-51.968-25.344C 146.56,56.858, 120.96,63.462, 119.424,74.47zM 61.824,260.070c-0.998-33.792, 72.704-65.587, 164.608-70.938c 92.16-5.402, 167.91,17.638, 168.96,51.456
		c 1.28,33.792-72.422,65.536-164.608,70.912C 138.624,316.902, 63.104,294.118, 61.824,260.070z M 123.52,266.726c 0.512,8.704, 19.712,14.592, 43.238,13.312
		C 190.592,278.784, 209.254,270.592, 208.998,261.888c-0.256-8.704-19.712-14.848-43.238-13.338C 142.208,249.83, 123.264,258.022, 123.52,266.726zM 70.758,397.030c-1.254-27.392, 59.648-46.592, 135.962-42.24c 76.032,4.096, 136.678,29.952, 136.166,57.088
		c-0.512,26.624-60.646,45.056-134.886,41.216C 133.504,449.254, 71.808,424.166, 70.758,397.030z M 121.472,408.013c 0.256,6.938, 16.154,13.594, 35.354,14.592
		c 19.2,1.024, 34.56-3.84, 34.56-10.752c-0.256-7.142-15.872-13.542-35.354-14.592C 136.55,396.262, 121.216,401.126, 121.472,408.013z"  />
<glyph unicode="&#xe01c;" d="M 392.192,279.808c-9.472-1.28-15.616-7.936-13.338-14.336c 5.12-14.848, 7.706-30.234, 7.706-45.338
	c0-15.36-2.586-30.694-7.962-45.798c-2.304-6.4, 3.789-12.8, 13.542-14.592l 4.096-0.256c 8.166,0, 15.386,3.789, 17.434,9.446
	c 5.862,16.614, 8.704,34.048, 8.704,51.2c0,17.152-2.765,34.048-8.704,50.688C 411.392,277.504, 401.92,281.344, 392.192,279.808z M 64.512,121.6l 24.064,0 L 332.8,372.48l0,25.6 
	c0,0-4.096,27.136-35.84,6.938C 271.59,388.608, 218.624,333.312, 181.248,300.8L 64.512,300.8 C 57.088,300.8, 51.2,294.912, 51.2,287.488l0-152.576 C 51.2,127.488, 57.088,121.6, 64.512,121.6z M 332.8,253.44
	l-141.824-141.85c 37.12-31.718, 84.966-71.654, 105.984-85.248C 328.704,6.144, 332.8,40.448, 332.8,40.448L 332.8,253.44 z M 481.792,449.792c-6.144,6.144-16.154,6.144-22.272,0
	l-114.662-114.432l-206.848-206.874L 30.208,20.48c-6.144-6.118-6.144-16.128,0-22.272C 33.28-4.838, 37.376-6.4, 41.472-6.4c 3.814,0, 7.936,1.562, 11.008,4.608
	l 130.33,130.304l 162.048,162.074l 136.96,136.986C 487.962,433.638, 487.962,443.648, 481.792,449.792z"  />
<glyph unicode="&#xe01d;" d="M 439.654,343.526c-39.962,0-72.346-32.384-72.346-72.346l0-79.718 L 144.691,191.462 L 144.691,271.181 c0,39.962-32.41,72.346-72.346,72.346
		S0,311.142,0,271.181c0-38.17, 29.67-69.12, 67.149-71.834l0-101.197 c0-14.157, 11.469-25.6, 25.6-25.6l 7.501,0 l0-7.603 c0-14.157, 11.469-25.6, 25.6-25.6l 26.291,0 
		c 14.157,0, 25.6,11.443, 25.6,25.6l0,7.603 l 156.493,0 l0-7.603 c0-14.157, 11.443-25.6, 25.6-25.6l 26.291,0 c 14.106,0, 25.6,11.443, 25.6,25.6l0,7.603 l 8.474,0 c 14.157,0, 25.6,11.443, 25.6,25.6l0,101.299 
		C 482.842,202.624, 512,233.318, 512,271.181C 512,311.142, 479.59,343.526, 439.654,343.526zM 178.202,292.941L 178.202,224 l 155.597,0 L 333.798,292.941 c0,51.482, 41.344,93.21, 92.621,94.054c-49.69,24.832-107.904,39.424-170.419,39.424
		s-120.73-14.566-170.419-39.424C 136.883,386.125, 178.202,344.448, 178.202,292.941z"  />
<glyph unicode="&#xe01f;" d="M 252.39,336.845c 21.786-2.56, 43.802,14.592, 47.386,37.376c 2.816,14.592-1.766,30.49-12.032,40.986
		c-9.754,10.47-24.602,15.36-38.144,13.056c-12.058-2.048-23.040-9.216-29.952-19.712c-7.962-12.288-9.728-28.928-4.352-42.752
		C 221.21,349.926, 236.058,338.432, 252.39,336.845zM 74.24,327.398c 14.080-6.144, 31.232-2.586, 41.728,8.986c 10.24,10.47, 13.594,27.648, 8.192,41.446
		c-6.4,18.944-27.648,29.952-45.798,24.064C 63.488,397.517, 51.942,383.232, 51.2,367.078C 49.408,350.413, 59.648,333.517, 74.24,327.398zM 409.088,327.629c 13.568-6.118, 30.464-3.072, 40.986,7.68c 10.982,10.752, 14.848,28.416, 9.165,42.752
		c-6.656,18.714-27.904,29.696-46.054,23.834c-14.362-4.378-25.344-17.92-26.906-33.28C 384.026,351.693, 394.010,334.029, 409.088,327.629zM 301.056,327.91l-88.294,0.256c-9.498,0-19.482-3.84-24.858-12.288c-4.352-5.914-5.094-13.312-5.069-20.506l0-122.624 
		c0-7.424, 0.998-15.59, 5.862-21.504c 4.864-7.168, 13.056-10.496, 21.248-11.52c0-30.72-0.282-61.696,0-92.672c0-13.312, 9.728-26.624, 22.784-27.648
		c 14.848-0.256, 29.952,0, 45.082-0.256c 7.706-0.256, 14.848,4.608, 19.456,10.752c 5.146,6.912, 5.632,16.128, 5.862,24.576c-0.256,28.416,0,56.832-0.256,85.248
		c 7.936,1.024, 16.128,4.096, 20.966,11.034c 5.35,6.656, 6.144,15.846, 6.4,24.038l0,120.576 c-0.538,7.194-1.306,14.874-5.658,20.736
		C 319.488,324.070, 309.99,327.91, 301.056,327.91zM 126.208,317.158L 54.272,317.158 c-7.168,0-14.848-0.794-20.48-6.144C 28.39,306.432, 26.112,298.982, 25.6,291.814l0-110.874 
		c 0.742-7.45, 3.072-14.822, 8.704-19.456c 4.122-3.584, 9.498-4.608, 14.362-5.862c 0.256-24.883,0-49.946, 0.256-75.034c0-8.448, 1.792-17.638, 8.448-23.014
		c 7.68-6.938, 18.432-5.683, 27.648-5.683c 9.446,0.307, 19.456-1.203, 28.646,1.587c 9.216,3.379, 15.104,13.286, 14.848,23.296
		c 0.538,26.317,0,52.736, 0.256,78.848c 6.144,1.28, 12.8,3.072, 16.896,8.448c 5.402,5.862, 6.4,14.336, 6.4,21.965l0,101.888 c0,6.912-0.742,14.080-5.094,19.712
		C 142.080,314.317, 133.914,317.158, 126.208,317.158zM 464.102,316.877c-24.294,0.538-48.845,0-73.19,0.282c-7.654,0.256-16.102-0.512-21.99-6.144
		c-6.4-5.632-8.448-14.592-8.218-23.040l0-103.68 c0-7.962, 1.818-16.41, 7.731-21.811c 4.045-4.352, 9.907-5.632, 15.565-6.912l0-77.056 
		c0-8.218, 2.765-16.922, 9.472-21.786c 8.448-6.912, 19.942-4.608, 29.952-4.864c 10.496,0.538, 22.502-2.304, 31.462,5.402
		c 6.4,4.838, 9.011,13.542, 8.704,21.504c 0.307,25.6,0,51.2, 0.307,76.8c 11.008,1.024, 21.811,9.472, 22.528,21.504L 486.426,295.91 
		C 485.658,307.661, 475.162,316.877, 464.102,316.877z"  />
<glyph unicode="&#xe020;" d="M 139.904,473.779c-14.336-0.742-26.624-7.142-36.608-18.944c-30.72-37.094-26.368-116.71-26.138-120.55
		c 5.888-53.248, 10.752-72.192, 16.896-96.256l 5.376-22.016c 0.768-3.072, 3.584-5.35, 6.4-5.35l 1.28,0.256l 81.92,17.613c 3.328,0.794, 5.632,4.096, 5.376,7.706
		c-2.048,28.646, 5.12,45.056, 12.288,60.646c 5.888,13.594, 12.288,27.648, 11.008,47.898L 217.702,345.779 l 0.026,0 C 214.938,394.675, 210.304,477.389, 139.904,473.779zM 202.624,189.645l-0.256,1.306c-0.768,3.558-4.352,5.862-7.706,5.094l-80.384-17.408
		c-1.766-0.282-3.328-1.587-4.352-3.098c-0.768-1.536-1.28-3.584-0.768-5.35c 11.008-57.088, 24.32-89.856, 59.392-89.856c 3.328,0, 6.912,0.256, 10.752,0.717
		c 10.496,1.766, 22.272,5.12, 29.21,16.435c 8.704,14.848, 7.398,39.398-4.864,88.269L 202.624,189.645zM 408.448,336.333c-9.728,11.75-21.99,18.15-36.352,18.944c-70.144,3.814-75.059-78.848-77.824-127.744l0-1.050 
		c-1.331-20.198, 5.069-34.278, 11.008-48.077c 7.168-15.59, 14.387-31.744, 12.262-60.698c-0.256-3.558, 2.048-6.912, 5.376-7.398l 81.664-17.894l 1.536-0.307
		c 2.816,0, 5.658,2.355, 6.4,5.658l 5.402,21.786c 6.118,24.064, 11.008,43.034, 16.87,96.768C 435.072,219.597, 439.424,299.213, 408.448,336.333zM 397.696,60.339l-80.41,17.434c-3.354,0.768-6.938-1.536-7.706-5.376l-0.256-0.742l-1.024-4.096
		c-12.262-48.896-13.824-73.754-4.864-88.602c 1.306-1.741, 2.611-3.302, 3.84-4.813l 66.304,0 c 14.106,14.362, 22.016,41.165, 29.21,77.824
		c 0.538,1.741,0,3.584-0.742,5.376C 401.024,58.854, 399.462,59.853, 397.696,60.339z"  />
<glyph unicode="&#xe021;" d="M 475.648,438.784c-19.994,3.046-34.048-14.080-48.41-24.832c-10.214,14.618-25.062,33.024-45.286,26.086
		c-30.669-10.189-43.469-45.517-47.846-75.546c-7.424-62.72-10.214-126.182-16.128-189.184c-16.64,8.218-33.792,14.899-51.456,19.738
		c 13.312,19.994, 21.53,42.752, 33.792,63.232c 1.254,34.816, 5.632,72.704-14.362,103.424c-32.512,58.138-121.6,66.048-164.096,15.386
		c-29.952-31.488-28.928-77.056-26.368-117.76c 12.8-19.968, 20.48-42.752, 33.28-62.72c-32.998-11.213-66.278-26.88-89.062-54.246c-32.768-36.096-42.24-86.246-39.168-133.862
		l 71.654,0.256c 2.56,10.24-1.536,23.808, 6.656,32c 19.968,7.168, 15.104-20.224, 17.408-32c 74.24,0, 148.198-1.024, 222.464,0.768
		c 13.824,104.448, 23.808,209.382, 30.976,314.598c 3.328,30.438, 3.046,65.536, 25.344,89.344c 5.35,6.4, 18.15,12.8, 24.806,4.096
		c 24.038-24.858, 8.141-60.723, 5.094-90.138c-14.566-107.264-32.742-214.272-52.736-320.486l 18.944,3.354c 25.344,107.699, 38.63,218.061, 54.784,327.629
		c 4.608,30.464, 11.494,65.766, 40.448,81.664c 22.758-1.050, 25.856-30.746, 25.6-48.64C 486.912,325.658, 472.576,281.856, 463.104,237.312
		c-11.238-7.654-20.992-17.382-21.248-31.77c-17.638-10.445-34.534-25.856-35.84-47.821c-3.814-23.322, 11.802-41.779, 28.442-54.835
		c-5.658-32.23-12.058-64.23-16.41-96.486l 19.712,4.634c 10.496,41.446, 10.496,86.246, 32,124.109c 16.896,30.49, 11.802,65.792, 13.568,98.867
		C 491.238,282.88, 510.976,329.728, 512,379.904C 511.488,403.686, 501.248,433.126, 475.648,438.784z M 114.202,265.754c-4.352,16.64-1.28,34.56-2.048,51.968
		c 56.576,14.592, 115.968,14.592, 172.288-0.282L 283.699,264.96c-17.178-2.304-35.866-12.288-53.018-4.352c-9.472,8.218-17.408,18.202-27.136,26.138
		C 180.25,290.56, 173.594,253.978, 150.835,256.768C 138.266,257.306, 125.978,261.146, 114.202,265.754z M 195.354,185.882c-31.718,1.024-52.966,27.904-66.048,54.272
		c 28.416-6.4, 52.992,6.4, 69.862,29.184c 13.85-26.086, 41.242-33.51, 68.378-28.646C 253.722,212.787, 229.683,183.578, 195.354,185.882zM 159.002,316.672c-10.214-8.192-10.752-40.96,0-48.358C 165.402,282.906, 165.683,302.618, 159.002,316.672zM 123.162,309.504c-1.024-12.006-1.536-24.038-1.766-36.326l 25.344-6.912L 146.483,315.648L 123.162,309.504z"  />
<glyph unicode="&#xe022;" d="M 430.413,14.899l-98.765,35.942l 67.917,210.125L 393.549,263.168l-75.469-207.36l-55.040,19.994l 70.784,89.395l-52.045,87.014
	l 41.6,38.605l 26.214-14.029l 13.798,6.451l-23.347,23.066l 12.902,12.006l 11.11-21.683l 42.854-34.304l 18.483,8.602L 383.923,311.552l-0.486,35.098
	l 16.154,15.002c 16,2.611, 30.234,13.338, 36.147,29.696c 8.781,24.038-3.661,50.637-27.648,59.366c-24.013,8.755-50.662-3.635-59.366-27.674
	C 343.808,409.523, 345.779,395.264, 352.538,383.744L 205.798,279.885l 65.382-91.878l-70.784-89.344l-146.714,53.402l-7.424-20.454l 264.371-96.256l-8.013-22.093
	l 15.053-5.504l 7.245,22.451l 98.099-35.738l 35.354,14.387l 7.398,20.454L 430.413,14.899z"  />
<glyph unicode="&#xe023;" d="M 179.405,264.678c 11.008,6.656, 24.832,8.192, 37.376,5.12l 9.216,20.966c 3.328,7.706, 5.632,15.898, 10.496,22.81
		c 5.402,8.704, 14.106,15.36, 24.346,17.152c 10.752,2.048, 21.99-1.28, 31.77-6.144c-3.635,33.050-11.546,65.792-21.786,97.050
		c-3.072,9.216-6.656,17.894-9.216,26.854c-1.536,4.608-2.56,9.498-5.376,13.568c-2.022,3.072-5.606,5.12-9.216,5.12C 243.968,467.174, 240.896,466.688, 237.824,466.432
		L 190.925,459.75c-30.208-4.608-60.928-10.726-88.576-24.064C 76.493,423.936, 52.941,407.808, 28.365,393.472c-3.84-2.56-8.448-4.864-9.728-9.472
		c-1.536-5.888, 1.28-11.52, 3.328-16.896c 4.608-10.496, 7.936-21.248, 12.032-31.744c 16.896-43.494, 38.144-86.246, 69.632-121.856c 21.76-24.576, 49.152-45.056, 80.896-53.504
		c 4.608,28.672, 12.544,56.32, 22.016,83.2c-6.4-1.28-12.544-3.072-18.176-6.4c-17.152-10.010-31.488-24.858-43.776-40.96c 1.024,12.006, 3.84,23.782, 7.936,34.765
		C 157.901,244.454, 166.605,257.254, 179.405,264.678z M 220.928,370.918c 14.874,0.486, 28.928-7.424, 39.962-17.152C 250.88,343.782, 238.080,335.334, 223.744,334.822
		c-14.848-0.256-28.416,7.68-39.424,17.152C 194.278,361.984, 206.566,370.15, 220.928,370.918z M 131.302,297.446c-12.032-8.986-27.648-10.24-41.984-8.73
		c 2.56,14.618, 8.448,29.466, 20.224,38.682c 12.058,8.986, 27.648,10.496, 41.984,8.986C 149.248,321.536, 143.36,306.432, 131.302,297.446zM 493.005,189.696c-1.997,5.094-6.938,8.192-11.008,11.238c-37.658,27.366-74.496,56.576-117.248,73.19
		c-28.39,11.52-58.112,18.944-87.526,27.366c-3.814,1.306-8.448,2.586-12.544,1.306c-5.606-2.304-7.654-8.704-9.728-14.080
		c-3.866-11.008-9.216-21.222-13.312-32c-13.824-34.022-25.088-69.581-30.464-106.982c-3.84-28.902-3.84-59.136, 3.584-88.038
		c 7.142-27.392, 20.966-54.272, 43.776-71.424c 6.656-5.376, 15.104-7.168, 23.27-8.448c 18.662-2.586, 37.862,0, 55.296,6.656c 26.368,9.216, 48.896,26.624, 68.096,46.592
		c 25.088,25.856, 44.8,56.576, 61.184,88.576c 8.986,17.152, 15.872,35.072, 24.627,52.224C 493.005,179.942, 494.797,184.858, 493.005,189.696z M 297.19,196.096
		c 12.8-6.912, 21.786-19.2, 27.648-32.512c-13.85-3.379-29.44-3.866-43.034,3.021c-13.030,6.886-22.016,19.43-28.134,32.768
		C 267.75,203.008, 283.622,203.187, 297.19,196.096z M 328.422,42.47c-13.568-5.376-29.696-7.168-43.52-0.768c-13.824,5.862-23.782,18.944-29.44,33.024
		c-7.142,17.92-9.216,37.683-8.704,56.883c 7.962-14.643, 17.152-28.493, 28.672-40.755c 8.448-8.704, 18.176-16.589, 29.696-19.942
		c 21.248-6.195, 43.52-5.146, 64.768-1.562C 357.606,58.061, 343.808,48.358, 328.422,42.47z M 378.829,117.76c-13.824,6.656-24.013,19.942-30.413,34.048
		c 13.542,3.354, 28.16,4.070, 41.165-1.792c 14.592-6.4, 24.832-20.198, 31.488-34.586C 407.501,111.872, 392.397,111.36, 378.829,117.76z"  />
<glyph unicode="&#xe024;" d="M 404.992,381.952l-81.152,0 C 321.024,415.258, 285.44,454.4, 250.342,454.4L 249.6,454.4 C 214.528,454.4, 166.144,415.258, 163.328,381.952L 96,381.952 
		C 92.16,380.186, 89.6,375.552, 89.6,371.2L 51.2,4.352C 51.2-1.562, 56.064-6.4, 62.464-6.4l 6.4,0 l 291.098,0 l 6.4,0 c 6.118,0, 11.238,4.838, 11.238,10.752l 38.4,366.848
		C 416,377.088, 411.162,381.952, 404.992,381.952z M 249.6,432.896l 0.742,0 c 22.81,0, 48.41-29.44, 50.97-50.944L 185.856,381.952 C 188.16,403.456, 226.816,432.896, 249.6,432.896z
		 M 177.408,312.832C 163.072,312.858, 151.552,323.84, 151.552,337.638c0,8.448, 4.608,16.154, 11.52,20.506l0-21.248 c0-6.144, 5.12-10.752, 11.264-10.752
		c 6.144,0, 11.008,4.608, 11.008,10.752L 185.344,360.448 l 1.792,0 c 9.216-3.61, 15.872-12.544, 15.872-22.81C 203.008,323.84, 191.488,312.832, 177.408,312.832z M 312.858,312.832
		c-14.106,0.026-25.6,11.008-25.6,24.806c0,9.754, 5.862,18.202, 14.566,22.298l0-23.040 c0-6.144, 4.864-10.752, 11.034-10.752c 6.118,0, 11.238,4.608, 11.238,10.752
		l0,23.040 c 8.448-4.096, 14.362-12.544, 14.362-22.298C 338.458,323.84, 327.142,312.832, 312.858,312.832zM 460.8,17.92L 425.728,353.024L 396.058,71.68 	zM 390.426,16.896c-0.026-6.144-5.146-11.008-11.264-11.008l 70.656,0 c 3.046,0, 5.658,1.254, 7.706,3.046l-62.438,51.2
		L 390.426,16.896z"  />
<glyph unicode="&#xe025;" d="M 439.654,343.526c-39.962,0-72.346-32.384-72.346-72.346l0-79.718 L 144.691,191.462 L 144.691,271.181 c0,39.962-32.41,72.346-72.346,72.346
		S0,311.142,0,271.181c0-38.17, 29.67-69.12, 67.149-71.834l0-101.197 c0-14.157, 11.469-25.6, 25.6-25.6l 7.501,0 l0-7.603 c0-14.157, 11.469-25.6, 25.6-25.6l 26.291,0 
		c 14.157,0, 25.6,11.443, 25.6,25.6l0,7.603 l 156.493,0 l0-7.603 c0-14.157, 11.443-25.6, 25.6-25.6l 26.291,0 c 14.106,0, 25.6,11.443, 25.6,25.6l0,7.603 l 8.474,0 c 14.157,0, 25.6,11.443, 25.6,25.6l0,101.299 
		C 482.842,202.624, 512,233.318, 512,271.181C 512,311.142, 479.59,343.526, 439.654,343.526zM 178.202,292.941L 178.202,224 l 155.597,0 L 333.798,292.941 c0,51.482, 41.344,93.21, 92.621,94.054c-49.69,24.832-107.904,39.424-170.419,39.424
		s-120.73-14.566-170.419-39.424C 136.883,386.125, 178.202,344.448, 178.202,292.941z"  />
<glyph unicode="&#xe026;" d="M 296.141,198.4L 197.914,198.4 C 180.48,198.4, 166.4,183.808, 166.4,166.144l0-114.688 C 166.4,33.792, 180.48,19.2, 197.914,19.2l 93.158,0 
		c-4.352,14.848-6.938,32.512-6.938,51.2c0,16.128, 1.766,45.056, 5.094,78.080c-6.656,6.144-10.445,14.848-10.445,23.040
		C 278.81,181.99, 285.389,191.488, 296.141,198.4zM 467.712,198.4l-90.854,0 c 10.752-6.912, 17.408-16.41, 17.408-26.88c0-9.984-5.862-20.224-15.386-27.136
		C 381.952,113.152, 383.744,85.76, 383.744,70.4c0-18.688-2.56-36.352-7.168-51.2l 91.136,0 c 17.459,0, 31.488,14.592, 31.488,32.256l0,114.688 C 499.2,183.808, 485.12,198.4, 467.712,198.4zM 362.726,159.258c0,15.104-11.776,27.11-26.138,27.11c-14.541,0-26.317-12.006-26.317-27.11
		c0-10.010, 5.376-18.662, 13.056-23.296l 2.048-1.050L 315.648,121.6l 15.59-102.4l 10.496,0 l 15.898,102.4l-10.035,13.312C 356.608,139.238, 362.726,148.48, 362.726,159.258zM 242.176,296.704c0-55.040, 43.264-88.832, 97.024-88.832c 53.504,0, 97.024,33.766, 97.024,88.832c0,10.496-1.536,20.224-4.352,29.696L 246.528,326.4 
		C 243.712,316.928, 242.176,307.2, 242.176,296.704zM 431.104,352L 452.096,395.008L 378.624,428.8L 294.656,428.8L 221.21,395.008L 247.322,352 	zM 191.258,361.19C 191.258,391.424, 167.424,416, 138.010,416c-29.44,0-53.248-24.576-53.248-54.81c0-6.707, 1.331-13.030, 3.482-18.944
		C 86.81,341.248, 85.248,340.531, 83.968,339.2L 20.25,273.92C 10.752,264.192, 10.266,248.576, 19.2,239.36c 9.216-9.216, 24.346-8.96, 33.818,1.050L 116.48,305.638
		C 117.837,306.995, 118.579,308.685, 119.552,310.221C 125.338,308.045, 131.507,306.688, 138.010,306.688C 167.424,306.688, 191.258,330.982, 191.258,361.19z M 125.722,369.638
		c0,11.546, 9.19,20.992, 20.48,20.992s 20.48-9.446, 20.48-20.992c0-11.494-9.19-20.966-20.48-20.966S 125.722,358.144, 125.722,369.638z"  />
<glyph unicode="&#xe027;" d="M 128,357.76L 384,357.76L 384,178.56L 435.2,178.56L 435.2,423.040L 76.8,423.040L 76.8,178.56L 128,178.56 	zM 458.496,127.36L 435.2,127.36 L 76.8,127.36 L 53.248,127.36 L0,55.398l 22.272-30.438L 153.6,24.96 l 25.6,0 l 153.6,0 l 25.6,0 l 131.328,0 L 512,53.888L 458.496,127.36z M 332.8,50.56L 179.2,50.56 l0,25.6 l 153.6,0 
		L 332.8,50.56 zM 196.096,213.888c-5.12-6.938-5.376-17.69-0.512-24.346c 4.838-6.4, 12.8-6.144, 18.15,0.794l 34.048,45.542
		c 0.717,0.973, 1.126,2.15, 1.638,3.251c 3.098-1.536, 6.4-2.483, 9.882-2.483c 15.872,0, 28.672,17.152, 28.672,38.144c0,20.992-12.8,38.144-28.672,38.144
		s-28.672-17.152-28.672-38.144c0-4.659, 0.717-9.062, 1.869-13.184C 231.706,260.915, 230.861,260.403, 230.144,259.456L 196.096,213.888z M 263.68,295.296
		c 6.144,0, 11.034-6.682, 11.034-14.592c0-8.192-4.838-14.848-11.034-14.848c-5.888,0-11.008,6.656-11.008,14.848C 252.672,288.64, 257.792,295.296, 263.68,295.296z"  />
<glyph unicode="&#xe028;" d="M 175.744,317.875c 24.218,0, 43.955,20.506, 43.955,45.722c0,24.986-19.738,45.466-43.955,45.466
		c-24.218,0-43.981-20.48-43.981-45.466C 131.763,338.381, 151.526,317.875, 175.744,317.875zM 288.154,167.757L 183.245,167.757 l0,0.051 L 183.245,254.95 c0,21.632-16.563,39.322-37.453,40.269C 124.877,294.272, 108.288,276.582, 108.288,254.95
		l0-121.651 c0-21.811, 16.563-39.322, 37.478-40.294l 127.181-0.179l 19.174-94.157c 3.277-16, 18.97-26.496, 35.226-23.782
		c 16.256,2.739, 26.726,17.997, 23.501,33.946l-27.494,134.656C 320.128,159.488, 304.41,167.757, 288.154,167.757zM 108.288,67.84L 258.15,67.84L 258.15,42.829L 108.288,42.829zM 307.891,216.474c0,0-17.997,70.938, 9.754,121.651c 27.699,50.688, 24.192,113.152-19.763,141.875c0,0, 32.742-31.974-9.728-131.635
		C 245.939,248.678, 307.891,216.474, 307.891,216.474zM 366.362,419.302c0,0, 32.717-32.23-9.754-131.891c-42.189-99.405, 19.507-131.661, 19.507-131.661s-17.741,70.938, 10.010,121.677
		C 413.542,328.141, 410.24,390.579, 366.362,419.302z"  />
<glyph unicode="&#xe029;" d="M 387.123,2.97l-1.536,0.973l0,28.493 c0,5.76-4.762,10.445-10.496,10.445l-34.662,0 c 3.226,0, 6.221,1.741, 8.218,4.506
		c 0.742,1.536, 1.51,9.037, 2.253,17.51c 1.254,14.746, 6.528,28.442, 11.008,41.984c 4.506,13.466, 7.501,27.469, 12.262,40.678
		c 2.714,7.808, 4.966,13.005, 4.25,21.811c-0.282,4.48-1.28,11.699-6.246,13.978c-5.53,2.227-13.747,1.485-17.536-3.251l-0.512-0.282
		l-32.973-46.234c-7.731-11.008-15.949-27.981-31.232-27.981c-8.474,0-15.462,4.813-19.456,11.776l-44.749,65.613
		c-2.509,3.994-9.472,4.25-15.718,0.307C 203.802,179.302, 200.806,172.8, 203.315,168.525l 20.736-33.946l-55.706,46.95
		c-5.76,4.787-14.976,2.765-20.736-4.224c-5.786-6.989-5.786-16.486,0-21.504l 35.712-29.952l 59.213-49.946l 11.469-9.498
		c 3.533-3.226, 6.989-12.749, 10.24-16.512c 2.714-2.97, 5.274-6.963, 9.523-6.963L 228.557,42.931 c-5.786,0-10.24-4.736-10.24-10.47l0-10.982 
		c0-5.965, 4.48-10.778, 10.24-10.778l0-6.758 l 14.976-10.47l0-14.976 c0-5.811, 4.48-10.496, 10.214-10.496l 129.382,0 c 5.786,0, 10.24,4.762, 10.24,10.496l0,14.976 
		C 393.37-2.304, 390.861,1.229, 387.123,2.97zM 289.229,121.856c 7.245,1.562, 12.262,6.502, 11.469,11.213l-8.218,42.214c-0.998,4.762-7.501,7.45-14.72,5.965
		c-6.963-1.536-12.262-6.528-11.213-11.213l 8.013-42.189C 275.482,123.11, 282.189,120.346, 289.229,121.856zM 416.589,242.739c 0.998,6.963, 1.536,14.234, 1.536,21.453c0,84.198-62.669,159.59-143.386,168.090
		c 4.992,4.992, 8.013,12.006, 8.013,19.738C 282.726,467.507, 270.49,480, 255.283,480C 240.282,480, 227.763,467.507, 227.763,452.019
		c0-8.243, 3.507-15.488, 9.011-20.454C 158.592,420.787, 98.15,346.88, 98.15,264.192c0-7.219, 0.538-14.49, 1.536-21.453l-52.224,0 
		c0-9.242, 7.219-24.986, 16.23-24.986l 384.358,0 c 9.011,0, 16.512,15.744, 16.512,24.986L 416.589,242.739 z M 191.078,292.685L 154.342,292.685 
		C 153.626,296.192, 153.088,299.674, 153.088,303.411c0,35.968, 29.978,67.942, 71.194,78.925c-20.224-15.206-33.946-45.21-33.946-77.901
		C 190.336,300.442, 190.566,296.448, 191.078,292.685z M 361.907,292.685l-36.736,0 c 0.538,3.738, 0.717,7.757, 0.717,11.75c0,32.691-13.696,62.694-34.202,77.901
		c 41.446-10.982, 71.142-42.957, 71.142-78.925C 362.88,299.674, 362.624,296.192, 361.907,292.685z"  />
<glyph unicode="&#xe02a;" d="M 194.534,472.909L 194.534,383.232 c0-7.014-5.709-12.723-12.723-12.723S 169.062,376.218, 169.062,383.258L 169.062,460.39 
		c0,7.014-5.709,12.723-12.723,12.723S 143.616,467.43, 143.616,460.39L 143.923,381.696c-0.794-6.246-5.888-11.187-12.39-11.187
		c-7.014,0-12.723,5.709-12.723,12.723L 118.81,473.114 c-14.131,0-25.6-11.443-25.6-25.6l0-135.040 c0-14.157, 11.469-25.6, 25.6-25.6l 0.358,0 l0-286.413 c0-14.157, 11.443-25.6, 25.6-25.6l 23.194,0 
		c 14.131,0, 25.6,11.443, 25.6,25.6L 193.562,286.874 c 14.106,0.051, 25.523,11.469, 25.523,25.6L 219.085,447.514 C 219.085,461.286, 208.128,472.32, 194.534,472.909zM 345.651,480c-40.422,0-73.139-42.266-73.139-94.413c0-38.733, 18.099-71.936, 43.955-86.502L 316.467-6.4 c0-14.157, 11.443-25.6, 25.6-25.6l 7.194,0 
		c 14.157,0, 25.6,11.443, 25.6,25.6L 374.861,299.136 c 25.856,14.541, 43.955,47.744, 43.955,86.451C 418.79,437.734, 386.048,480, 345.651,480z"  />
<glyph unicode="&#xe02b;" d="M 439.654,343.526c-39.962,0-72.346-32.384-72.346-72.346l0-79.718 L 144.691,191.462 L 144.691,271.181 c0,39.962-32.41,72.346-72.346,72.346
		S0,311.142,0,271.181c0-38.17, 29.67-69.12, 67.149-71.834l0-101.197 c0-14.157, 11.469-25.6, 25.6-25.6l 7.501,0 l0-7.603 c0-14.157, 11.469-25.6, 25.6-25.6l 26.291,0 
		c 14.157,0, 25.6,11.443, 25.6,25.6l0,7.603 l 156.493,0 l0-7.603 c0-14.157, 11.443-25.6, 25.6-25.6l 26.291,0 c 14.106,0, 25.6,11.443, 25.6,25.6l0,7.603 l 8.474,0 c 14.157,0, 25.6,11.443, 25.6,25.6l0,101.299 
		C 482.842,202.624, 512,233.318, 512,271.181C 512,311.142, 479.59,343.526, 439.654,343.526zM 178.202,292.941L 178.202,224 l 155.597,0 L 333.798,292.941 c0,51.482, 41.344,93.21, 92.621,94.054c-49.69,24.832-107.904,39.424-170.419,39.424
		s-120.73-14.566-170.419-39.424C 136.883,386.125, 178.202,344.448, 178.202,292.941z"  />
<glyph unicode="&#xe02c;" d="M 435.2,310.81L 168.448,310.81 l 163.482,93.875c 4.070-1.741, 8.576-2.688, 13.286-2.688c 18.765,0, 33.997,15.232, 33.997,33.997
	c0,18.765-15.232,33.997-33.997,33.997c-18.739,0-33.971-15.206-33.971-33.997c0-0.256, 0.128-0.461, 0.154-0.691l-0.538,0.717L 92.672,310.81L 76.8,310.81 
	c-28.416,0-51.2-22.528-51.2-50.458l0-231.91 c0-27.955, 22.784-50.458, 51.2-50.458l 358.4,0 c 28.39,0, 51.2,22.502, 51.2,50.458L 486.4,260.352 C 486.4,288.282, 463.59,310.81, 435.2,310.81z
	 M 332.8,234.010l 76.8,0 l0-76.8 l-76.8,0 L 332.8,234.010 z M 179.968,41.011c-60.16,0-108.8,47.846-108.8,106.752c0,59.136, 48.64,107.034, 108.8,107.034c 59.904,0, 108.544-47.898, 108.544-107.034
	C 288.512,88.858, 239.872,41.011, 179.968,41.011z M 332.8,131.61l 76.8,0 l0-76.8 l-76.8,0 L 332.8,131.61 z"  />
<glyph unicode="&#xe02d;" d="M 486.4,262.4l0,25.6 l-51.2,0 L 435.2,328.678 l 33.306,33.306L 409.6,467.2l-58.931-105.19L 384,328.678L 384,288 l-102.4,0 L 281.6,328.678 l 33.306,33.306L 256,467.2L 197.069,362.010
	L 230.4,328.678L 230.4,288 L 128.154,288 L 128.154,328.678 L 161.459,361.984L 102.554,467.2L 43.622,362.010l 33.331-33.331L 76.954,288 L 25.6,288 l0-25.6 l 51.354,0 l0-153.6 L 25.6,108.8 l0-25.6 l 51.354,0 l0-102.4 l 51.2,0 l0,102.4 L 230.4,83.2 l0-102.4 l 51.2,0 l0,102.4 l 102.4,0 l0-102.4 l 51.2,0 l0,102.4 l 51.2,0 l0,25.6 
	l-51.2,0 l0,153.6 L 486.4,262.4 z M 128.154,108.8l0,153.6 L 230.4,262.4 l0-153.6 L 128.154,108.8 z M 384,108.8l-102.4,0 l0,153.6 l 102.4,0 L 384,108.8 z"  />
<glyph unicode="&#xe02e;" d="M 20.378,101.888c 0.256,0.205, 27.341,20.813, 61.44,20.813c 34.074,0, 60.902-20.608, 62.669-21.811
		c 0.973-0.538, 23.987-13.594, 52.326-13.594c 0.87,0, 1.715,0, 2.611,0.077c 28.902,0.768, 67.149,21.069, 68.787,21.914
		c 7.245,3.891, 29.389,14.106, 44.57,13.389c 17.178-0.589, 22.016-2.842, 48.922-15.36l 9.139-4.25c 37.811-17.254, 64.998-15.795, 66.893-15.642
		c 1.613,0.205, 39.117,4.941, 66.355,26.010c 5.504,4.25, 6.502,12.211, 2.253,17.741c-4.301,5.504-12.211,6.502-17.715,2.253
		c-21.53-16.691-53.35-20.89-53.069-20.89c-0.538,0.051-22.758-0.794-54.144,13.542l-9.062,4.198c-27.981,12.954-36.403,16.845-58.675,17.638
		c-23.987,0.896-54.17-14.618-57.395-16.358c-9.574-5.094-38.554-18.483-57.574-18.995c-21.146-1.050-39.808,9.216-40.141,9.216l0-0.051 
		c-2.125,1.613-34.227,26.138-76.723,26.138c-43.008,0-75.622-25.037-76.979-26.138c-5.478-4.301-6.451-12.186-2.176-17.664
		C 6.938,98.662, 14.899,97.587, 20.378,101.888zM 509.338,69.53c-4.301,5.581-12.237,6.528-17.715,2.278c-21.453-16.64-53.197-21.094-52.941-21.094
		c-0.461-0.051-22.886-0.614-54.272,13.747l-7.245,3.354c-29.005,13.389-37.786,17.459-60.442,18.253c-24.653,0.614-54.323-14.387-57.779-16.154
		c-9.446-5.146-38.118-18.662-57.216-19.2c-0.691,0-1.357,0-1.997,0c-21.274,0-38.298,9.702-38.17,9.165
		c-2.099,1.613-34.458,26.138-76.698,26.138c-43.008,0-75.648-25.062-77.005-26.138c-5.478-4.301-6.477-12.237-2.176-17.715
		s 12.211-6.502, 17.741-2.15c 0.256,0.205, 27.034,20.813, 61.44,20.813c 33.843,0, 60.954-20.659, 62.669-21.811c 0.998-0.589, 23.91-13.542, 52.173-13.542
		c 0.922,0, 1.843,0, 2.765,0c 28.954,0.845, 66.944,21.402, 68.378,22.144c 7.347,3.84, 29.363,14.259, 44.979,13.21
		c 17.562-0.589, 22.656-2.944, 50.688-15.898l 7.347-3.405c 37.811-17.254, 64.947-16.102, 66.995-15.949c 1.587,0.179, 39.066,5.248, 66.253,26.291
		C 512.589,56.141, 513.613,64.026, 509.338,69.53zM 256.026,312.934c-25.574,0-46.31-20.736-46.31-46.285c0-3.354, 0.384-6.63, 1.075-9.779
		C 225.254,260.326, 240.358,262.374, 256,262.374c 15.642,0, 30.72-2.048, 45.21-5.504c 0.666,3.149, 1.101,6.426, 1.101,9.779
		C 302.31,292.198, 281.549,312.934, 256.026,312.934zM 159.437,236.288C 169.958,242.483, 181.248,247.654, 193.101,251.725C 191.974,256.538, 191.206,261.504, 191.206,266.65
		c0,35.763, 29.005,64.768, 64.794,64.768c 35.789,0, 64.794-29.005, 64.794-64.768c0-5.146-0.768-10.112-1.894-14.925
		c 11.878-4.070, 23.142-9.242, 33.638-15.437l 59.341,30.362l-69.786,35.712l 24.064,74.522L 291.738,352.768L 256,422.554L 220.288,352.768L 145.766,376.883
		l 24.064-74.522L 100.070,266.65L 159.437,236.288z"  />
<glyph unicode="&#xe02f;" d="M 319.488,285.722c 24.013,0, 43.443,16.666, 43.443,37.12c0,20.48-19.43,36.89-43.443,36.89
		c-23.987,0.026-43.392-16.41-43.392-36.89C 276.096,302.387, 295.526,285.722, 319.488,285.722zM 82.099,260.454c 5.325-6.042, 14.899-7.322, 21.453-3.277l 62.413,38.118c 8.064-0.512, 31.821,1.536, 23.987-25.242
		L 127.053,230.4l 242.458,0.538L 195.994,333.696c-5.299,5.837-15.155,7.117-22.221,2.56l-90.163-56.064C 76.8,275.891, 75.776,267.802, 80.845,261.965L 82.099,260.454z
		M 20.403,164.71c 0.256,0.205, 27.008,20.813, 61.44,20.813c 34.048,0, 60.877-20.608, 62.643-21.811
		c 0.998-0.589, 24.013-13.594, 52.326-13.594c 0.87,0, 1.715,0, 2.56,0c 28.902,0.845, 67.149,21.146, 68.762,21.99
		c 7.27,3.866, 30.106,13.901, 44.57,13.363c 17.152-0.614, 21.99-2.867, 48.845-15.334l 9.242-4.301c 37.76-17.254, 64.998-15.795, 66.893-15.667
		c 1.613,0.205, 39.091,4.966, 66.304,26.061c 5.504,4.301, 6.502,12.186, 2.253,17.69c-4.301,5.53-12.211,6.502-17.715,2.253
		c-21.478-16.614-53.299-20.813-53.018-20.813c-0.307-0.102-22.63-0.947-54.144,13.466l-9.139,4.25c-27.904,12.902-36.326,16.845-58.598,17.613
		c-24.73,0.998-54.144-14.643-57.37-16.41c-9.574-5.094-38.554-18.458-57.574-18.995c-21.12-0.896-39.808,9.242-40.115,9.242
		C 156.416,186.189, 124.314,210.688, 81.843,210.688c-43.034,0-75.648-25.062-77.005-26.163c-5.478-4.25-6.451-12.186-2.176-17.664
		C 6.963,161.408, 14.874,160.358, 20.403,164.71zM 509.338,132.352c-4.301,5.555-12.211,6.502-17.741,2.253c-21.478-16.64-53.222-21.094-52.966-21.094
		c-0.461-0.102-22.835-0.589-54.221,13.747l-7.194,3.354c-29.056,13.414-37.837,17.485-60.493,18.253c-24.704,1.050-54.298-14.413-57.754-16.205
		c-9.446-5.146-38.144-18.611-57.242-19.149c-0.666,0-1.357,0-1.997,0c-21.274,0-38.298,9.754-38.17,9.19
		c-2.099,1.638-34.458,26.138-76.672,26.138c-43.008,0-75.622-25.088-76.979-26.189c-5.478-4.301-6.451-12.211-2.176-17.69
		s 12.211-6.451, 17.715-2.202c 0.256,0.205, 27.341,20.838, 61.44,20.838c 33.818,0, 60.928-20.659, 62.643-21.862c 0.998-0.538, 23.936-13.491, 52.173-13.491
		c 0.922,0, 1.843,0, 2.765,0.026c 28.954,0.768, 66.944,21.35, 68.403,22.118c 7.347,3.866, 29.44,14.336, 44.954,13.235
		c 17.562-0.563, 22.656-2.944, 50.79-15.949l 7.245-3.354c 37.811-17.331, 64.947-16.179, 66.944-15.949c 1.613,0.179, 39.091,5.248, 66.304,26.214
		C 512.589,118.912, 513.613,126.848, 509.338,132.352z"  />
<glyph unicode="&#xe030;" d="M 196.813,101.478c-28.339,0-51.354,13.030-52.326,13.594c-1.766,1.203-28.595,21.837-62.694,21.837
					s-61.184-20.659-61.44-20.813c-5.504-4.25-13.44-3.226-17.69,2.227c-4.275,5.504-3.302,13.389, 2.15,17.638
					c 1.382,1.101, 33.971,26.163, 76.979,26.163c 42.522,0, 74.624-24.499, 76.723-26.138l0,0c 0.333,0, 18.995-9.907, 40.141-9.216
					c 19.021,0.538, 48,13.901, 57.574,18.97c 3.226,1.741, 33.126,17.51, 57.421,16.41c 22.246-0.742, 30.669-4.71, 58.624-17.638l 9.114-4.198
					c 31.411-14.336, 53.581-13.491, 54.093-13.517l0,0c-0.256,0, 31.565,4.198, 53.094,20.864c 5.555,4.25, 13.44,3.251, 17.69-2.253
					c 4.301-5.555, 3.302-13.44-2.202-17.741c-27.213-21.043-64.794-25.805-66.406-26.010c-1.894-0.179-29.107-1.587-66.842,15.642l-9.19,4.275
					c-26.906,12.467-31.77,14.72-48.896,15.334c-15.437,1.050-37.325-9.498-44.621-13.363c-1.638-0.845-39.859-21.146-68.762-21.965
					C 198.528,101.478, 197.683,101.478, 196.813,101.478zM 199.68,39.603c-28.262,0-51.174,13.005-52.173,13.542c-1.715,1.178-28.826,21.862-62.694,21.862
					c-34.406,0-61.133-20.659-61.414-20.813c-5.504-4.301-13.44-3.328-17.715,2.15c-4.301,5.504-3.328,13.414, 2.15,17.715
					c 1.382,1.101, 33.971,26.189, 76.979,26.189c 42.24,0, 74.598-24.525, 76.698-26.138c-0.128,0.435, 16.896-9.19, 38.17-9.19
					c 0.64,0, 1.306,0, 1.971,0.026c 19.098,0.538, 47.795,14.003, 57.242,19.149c 3.456,1.818, 32.922,17.075, 57.754,16.205
					c 22.707-0.819, 31.462-4.864, 60.544-18.33l 7.194-3.302c 31.386-14.387, 53.786-13.722, 54.246-13.747c-0.256,0.026, 31.462,4.454, 52.915,21.094
					c 5.504,4.25, 13.414,3.251, 17.715-2.253c 4.25-5.555, 3.251-13.414-2.253-17.715c-27.162-21.043-64.614-26.086-66.202-26.266
					c-2.099-0.154-29.261-1.331-66.995,15.949l-7.245,3.354c-28.16,13.005-33.254,15.386-50.842,15.949c-15.59,0.922-37.606-9.344-44.954-13.21
					c-1.459-0.768-39.475-21.325-68.403-22.144C 201.523,39.603, 200.602,39.603, 199.68,39.603zM 12.621,265.421L 45.21,246.477L 256.128,370.278L 467.046,246.477L 499.379,265.421L 256.128,408.397 	z"  />
<glyph unicode="&#xe031;" d="M 28.544,428.8l 203.776-227.328L 232.32,70.4 l-108.8,0 c-37.658,0-32.768-51.2, 4.838-51.2l 276.25,0 c 37.35,0, 37.094,51.2,0,51.2l-121.062,0 l0,131.072 L 483.456,428.8
	L 28.544,428.8 z M 300.39,271.616c-19.738,0-35.84,14.848-35.84,33.024s 16.154,33.024, 35.84,33.024c 19.686,0, 35.61-14.848, 35.61-33.024S 320.102,271.616, 300.39,271.616z"  />
<glyph unicode="&#xe032;" d="M 404.506,233.19c-11.008,0-19.942,8.986-19.942,19.994c0,11.238, 8.986,20.198, 19.942,20.198
		c 11.059,0, 19.968-8.96, 19.968-20.198C 424.474,242.176, 415.488,233.19, 404.506,233.19z M 253.978,90.88c-55.040,0-99.84,45.338-99.84,101.376
		c0,55.808, 44.8,101.12, 99.84,101.12c 55.014,0, 99.814-45.338, 99.814-101.12C 353.792,136.192, 308.992,90.88, 253.978,90.88z M 486.426,284.928
		c-1.28,15.872-12.262,46.080-46.387,46.080l-63.462,0 C 373.811,362.24, 360.013,403.2, 321.306,403.2l-125.952,0 l-1.28,0 c-4.096-0.512-38.4-6.144-42.24-72.448l-76.544-0.512
		c-17.152-0.768-49.638-12.288-49.638-50.688l0-187.162 c-0.256-4.070-0.512-20.762, 11.008-33.562C 45.082,49.408, 56.883,44.8, 71.987,44.8l 368.614,0 l 0.538,0 
		c 15.565,1.562, 45.312,13.312, 45.312,47.104L 486.451,284.16 L 486.426,284.928L 486.426,284.928z"  />
<glyph unicode="&#xe033;" d="M 319.974,107.008l0-92.928 c0-11.264, 8.704-20.48, 19.738-20.48l 11.802,0 c 11.008,0, 19.712,9.19, 19.712,20.48l0,100.378 l0,83.738 L 371.226,206.080 L 264.96,275.2
	L 86.528,275.2 l-40.96,56.038C 40.704,339.942, 29.952,346.88, 21.76,341.248c-8.192-5.658-11.264-16.896-7.168-25.6l 19.712-40.704c 7.68-26.624, 20.48-51.2, 37.888-73.216L 12.8,124.672l0-119.014 
	C 12.8-1.024, 21.504-6.4, 32.512-6.4l 11.776,0 c 11.008,0, 19.712,5.376, 19.712,12.058L 64,105.728 l 59.392,47.13L 319.974,107.008z M 394.726,376.32
	c-5.376,3.584-11.469,5.376-17.613,5.862L 361.702,416c-1.741,4.096-7.424,7.142-12.493,7.142l-9.242,0 c-5.35,0-8.704-3.046-7.654-7.142
	l 8.96-39.962c 0.512-1.766, 1.28-3.584, 2.304-5.094L 294.63,303.36l 90.624-68.352l 22.272,34.816l 25.882-15.616c 17.638-10.752, 40.422-2.79, 50.918,16.896
	l 11.776,8.96c 10.189,19.482-6.656,34.586-23.245,45.338L 394.726,376.32z M 89.6,419.072l 157.44-118.528l 19.712,20.48L 89.6,454.4L 89.6,419.072 z"  />
<glyph unicode="&#xe034;" d="M 256,453.658c-126.848,0-229.632-102.81-229.632-229.658c0-126.822, 102.81-229.658, 229.658-229.658c 126.797,0, 229.632,102.835, 229.632,229.658
	C 485.658,350.848, 382.797,453.658, 256,453.658z M 345.6,326.4l-128,0 l0-76.8 l 128,0 l0-25.6 l-128,0 l0-102.4 l 128,0 l0-25.6 l-179.2,0 L 166.4,352 l 179.2,0 L 345.6,326.4 z"  />
<glyph unicode="&#xe035;" d="M 409.6,32l 25.6,0 c 28.16,0, 51.2,23.040, 51.2,51.2l0,204.8 c0,28.16-23.040,51.2-51.2,51.2l-25.6,0 L 409.6,32 z M 76.8,339.2c-28.16,0-51.2-23.040-51.2-51.2l0-204.8 c0-28.16, 23.040-51.2, 51.2-51.2l 25.6,0 l0,307.2 L 76.8,339.2 
	z M 128,32l 256,0 l0,307.2 l-51.2,0 l0,76.8 L 179.2,416 l0-76.8 L 128,339.2 L 128,32 z M 307.2,339.2L 204.8,339.2 l0,51.2 l 102.4,0 L 307.2,339.2 z M 230.4,262.4l 51.2,0 l0-51.2 l 51.2,0 l0-51.2 l-51.2,0 l0-51.2 L 230.4,108.8 l0,51.2 L 179.2,160 l0,51.2 l 51.2,0 L 230.4,262.4 z"  />
<glyph unicode="&#xe036;" d="M 453.888,403.2L 58.112,403.2 C 26.112,403.2,0,377.344,0,345.344l0-242.688 C0,70.656, 26.112,44.8, 58.112,44.8l 395.776,0 c 32,0, 58.112,25.856, 58.112,57.856L 512,345.344 
		C 512,377.344, 485.888,403.2, 453.888,403.2z M 358.4,96L 51.2,96 L 51.2,352 l 307.2,0 L 358.4,96 z M 430.592,137.19c-12.8,0-23.296,10.496-23.296,23.296s 10.496,23.040, 23.296,23.040s 23.296-10.24, 23.296-23.040
		S 443.392,137.19, 430.592,137.19z M 430.592,229.888c-19.2,0-35.072,15.36-35.072,34.56s 15.872,34.79, 35.072,34.79S 465.408,283.648, 465.408,264.448
		S 449.792,229.888, 430.592,229.888zM 155.469,269.184c 15.974,0, 30.131,5.274, 40.55,13.747L 196.019,282.88 c 10.496,8.627, 24.73,14.080, 40.602,14.080
		c 26.317,0, 48.486-14.387, 55.373-33.843c 1.178,3.891, 1.792,8.090, 1.792,12.262c0,25.728-25.498,46.413-57.165,46.413
		c-15.974,0-30.106-5.274-40.576-13.747L 196.045,308.070 c-10.47-8.678-24.73-14.336-40.576-14.336c-26.342,0-48.512,14.618-55.398,34.125
		C 98.893,323.968, 98.253,319.77, 98.253,315.597C 98.253,289.818, 123.75,269.184, 155.469,269.184zM 236.646,185.83c-16.026,0-30.182-5.222-40.602-13.722l0,0.051 c-10.445-8.602-24.704-14.080-40.55-14.080
		c-26.342,0-48.512,14.387-55.398,33.818c-1.203-3.84-1.818-8.038-1.818-12.262c0-25.702, 25.498-46.413, 57.216-46.413
		c 15.949,0, 30.131,5.299, 40.525,13.747l0-0.051 c 10.47,8.704, 24.755,14.362, 40.576,14.362c 26.317,0, 48.486-14.618, 55.424-34.099
		c 1.178,3.84, 1.818,8.064, 1.818,12.262C 293.862,165.146, 268.339,185.83, 236.646,185.83zM 155.469,201.19c 15.949,0, 30.131,5.248, 40.525,13.747l0-0.051 c 10.47,8.704, 24.755,14.362, 40.576,14.362
		c 26.317,0, 48.486-14.643, 55.424-34.15c 1.178,3.891, 1.843,8.090, 1.843,12.262c0,25.805-25.523,46.438-57.19,46.438
		c-16.026,0-30.182-5.274-40.602-13.747L 196.045,240.077 C 185.6,231.424, 171.315,225.766, 155.469,225.766c-26.342,0-48.512,14.643-55.398,34.15
		C 98.893,255.974, 98.253,251.802, 98.253,247.603C 98.253,221.85, 123.75,201.19, 155.469,201.19z"  />
<glyph unicode="&#xe037;" d="M 25.6,147.2L 179.2,147.2L 179.2-6.4L 25.6-6.4zM 25.6,454.4L 179.2,454.4L 179.2,300.8L 25.6,300.8zM 332.8,147.2L 486.4,147.2L 486.4-6.4L 332.8-6.4zM 179.2,300.8L 332.8,300.8L 332.8,147.2L 179.2,147.2zM 332.8,454.4L 486.4,454.4L 486.4,300.8L 332.8,300.8z"  />
<glyph unicode="&#xe038;" d="M 112.794,304.435c0-82.432, 87.296-149.248, 194.79-149.248c 15.846,0, 31.258,1.254, 46.106,4.096
	c 15.59-20.787, 48.102-49.69, 103.142-38.707c0,0-39.962,24.576-35.61,62.438c 49.408,27.162, 81.408,71.45, 81.408,121.37c0,82.432-87.245,149.248-195.046,149.248
	C 200.090,453.683, 112.794,386.842, 112.794,304.435z M 42.138,168.73c0,30.234, 16.896,54.81, 44.262,71.45c-3.328,9.216-5.862,18.432-6.938,28.16
	c-40.448-22.784-66.304-59.136-66.304-100.096c0-41.754, 16.896-74.24, 56.858-98.048c 3.584-31.744-60.698-74.496-60.698-74.496c 46.592-9.19, 130.842,30.694, 144.154,48.128
	c 12.288-2.304, 10.752,0, 24.038,0c 67.098,0, 124.749,30.234, 150.349,73.728c-7.731-0.742-15.642-1.024-23.885-1.024c-24.32-31.462-69.606-52.48-121.6-52.48
	c-11.264,0-22.528,1.024-33.024,2.79c-11.238-14.566-45.542-42.214-83.2-42.214c0,0, 26.342,22.016, 24.858,58.88
	C 55.45,102.682, 42.138,133.709, 42.138,168.73z"  />
<glyph unicode="&#xe039;" d="M 184.525,19.226l 179.2,0 l 87.834,237.056c 20.966,56.064-30.234,68.864-49.434,16.128c-13.824-38.144-24.064-43.264-24.064-43.264
	s-20.966,0-17.613,22.528c 4.813,30.208, 11.213,67.072, 20.787,123.136c 6.093,34.816-49.459,39.936-54.298,11.264c-4.838-28.928-16.102-105.728-19.2-123.392
	c-3.302-17.408-23.552-32-25.6,11.264c-1.254,28.928-3.302,71.424-3.302,128c0,38.4-60.698,33.536-60.698-1.536c0-24.576, 2.048-124.928, 1.562-144.128
	c-0.256-19.2-8.704-25.062-20.762,1.792c-12.8,28.672-26.342,62.72-38.4,91.136c-17.638,41.472-65.28,13.056-54.502-16.128c 9.702-25.344, 32.742-81.408, 51.2-124.672
	c 9.702-22.042, 21.76-66.048-7.962-43.238c-20.762,16.128-28.672,32-52.762,48.128c-24.038,15.872-48.102-18.483-38.912-29.952
	c 20.762-25.6, 57.344-65.792, 81.152-104.448C 156.083,49.946, 184.525,19.226, 184.525,19.226z"  />
<glyph unicode="&#xe03a;" d="M 423.398,262.912l-92.928-68.608c-0.282-11.776, 0.256-23.552,0-35.328c 31.232,22.784, 62.413,45.568, 93.184,69.12L 423.398,262.912z
			 M 339.712,389.12c 4.634,1.024, 9.19,3.328, 13.85,1.28c 9.984-1.562, 14.541-11.776, 14.054-20.762C 367.078,360.192, 369.152,350.182, 365.824,340.992
			c-3.328-7.45-13.082-12.288-21.248-9.472c-5.862,0.256-8.986,5.632-12.8,9.216L 252.365,288.512c-6.118-4.352-13.056-9.472-14.054-17.408
			c-1.562-6.912, 0.256-15.846, 8.166-18.688c 12.544-4.608, 25.6,0, 37.862,3.61c 6.144,3.072, 12.8,5.658, 18.944,8.96c 41.216,26.906, 80.435,56.858, 120.064,85.786
			c 5.632,4.352, 11.776,9.728, 19.738,8.96c 10.010,0, 18.15-9.472, 17.638-18.918l0-228.352 c0-6.4-3.61-12.262-8.96-15.898
			c-42.752-30.669-84.506-62.413-128.538-91.648c-12.493-7.654-27.904-11.008-42.752-11.213c-22.016,0-45.338,5.376-62.464,19.2
			c-10.752,8.448-17.638,21.248-17.638,34.586l-0.256,210.662c-1.306,8.448, 0.742,16.896, 2.56,25.344c 4.352,14.336, 15.872,25.856, 28.39,34.56
			C 267.494,341.504, 303.539,365.312, 339.712,389.12zM 200.166,454.4c 9.984-1.024, 18.15-8.192, 18.662-17.92c-0.538-11.008, 1.792-22.528-2.022-33.024
		c-3.584-7.168-13.082-12.032-21.248-9.216c-5.888,0.742-10.010,5.862-12.8,10.496c-27.136-17.126-55.296-33.28-82.688-50.176
		c-11.008-6.144-13.824-20.992-8.192-31.462c 2.56-4.096, 8.704-3.584, 13.056-3.814c 15.36,1.254, 29.184,8.422, 42.24,15.59c 44.8,27.392, 89.344,55.040, 133.683,83.456
		C 288,423.168, 299.52,423.987, 305.92,417.050c 8.96-7.68, 7.168-22.528-2.586-29.184c-28.416-18.202-56.858-35.84-85.043-54.016
		C 208.614,327.68, 199.398,320.256, 193.51,310.81C 183.501,294.912, 181.709,276.224, 181.453,258.048l0-169.19 c-0.256-3.354-0.512-6.682-2.56-9.498
		c-4.352-9.165-15.872-10.496-24.858-12.544c-24.038-3.789-49.408-1.741-71.654,7.45c-8.704,4.634-17.92,9.446-23.552,17.434
		c-4.864,6.4-7.424,14.387-7.424,22.272L 51.405,326.656 c-1.792,22.016, 8.192,46.106, 28.672,57.856c 35.84,21.786, 71.936,43.034, 107.264,65.306
		C 191.206,452.608, 196.070,452.838, 200.166,454.4z"  />
<glyph unicode="&#xe03b;" d="M 413.312,419.994L 98.688,419.994 C 44.262,419.994,0,375.706,0,321.28l0-165.811 c0-48.179, 34.662-88.346, 80.384-96.947l0-30.515 l 352.102,0 l0,30.669 
	C 477.747,67.61, 512,107.597, 512,155.469L 512,321.28 C 512,375.706, 467.738,419.994, 413.312,419.994z M 256,54.528c-7.654,0-13.875,6.221-13.875,13.926
	c0,7.654, 6.246,13.85, 13.875,13.85c 7.68,0, 13.901-6.195, 13.901-13.85C 269.901,60.749, 263.68,54.528, 256,54.528z M 467.43,155.469
	c0-29.85-24.269-54.144-54.118-54.144L 98.688,101.325 c-29.85,0-54.144,24.294-54.144,54.144L 44.544,321.28 c0,29.875, 24.294,54.118, 54.144,54.118l 314.573,0 
	c 29.85,0, 54.144-24.243, 54.144-54.118L 467.43,155.469L 467.43,155.469z"  />
<glyph unicode="&#xe03c;" d="M 384.896,45.44l 67.302,204.8l 54.298,0 l0,51.2 l-69.402,0 l-30.208,101.12L 256,381.184L 105.114,402.56l-30.234-101.12l-69.376,0 l0-51.2 l 54.272,0 l 67.328-204.8
	L 384.896,45.44 z M 124.57,301.44l 16.896,55.552l 113.638-14.131l 115.456,14.131l 16.87-55.552L 124.57,301.44 z M 116.122,250.24l 58.342,0 l 7.962-51.2l-51.2,0 L 116.122,250.24z
	 M 161.408,71.040l-18.176,76.8l 45.568,0 l 9.446-76.8L 161.408,71.040 z M 277.325,147.84l-9.19-76.8L 243.866,71.040 l-9.216,76.8L 277.325,147.84 z M 228.25,199.040l-7.936,51.2l 71.398,0 l-7.962-51.2
	L 228.25,199.040 z M 350.592,71.040l-36.838,0 l 9.446,76.8l 45.542,0 L 350.592,71.040z M 380.8,199.040l-51.2,0 l 7.962,51.2l 58.342,0 L 380.8,199.040z"  />
<glyph unicode="&#xe03d;" d="M 488.448,157.696L 435.2,141.824L 435.2,185.6 l-1.408,0 L 102.4,185.6 L 101.018,185.6 l0-43.776 l-53.248,15.872c-11.776,0-23.552-10.010-23.552-22.016
		c0-12.262, 11.776-22.272, 23.552-22.272l 53.248-15.846l0-72.448 c0-24.602, 19.2-44.262, 42.752-44.262L 145.152-19.149 l 245.888,0 l 1.408,0 c 23.552,0, 42.752,19.738, 42.752,44.262l0,72.448 
		l 53.248,15.846c 11.776,0, 23.552,10.010, 23.552,22.272C 512,147.712, 500.224,157.696, 488.448,157.696zM 207.872,303.36L 114.458,308.48L 106.752,268.288l 330.496-55.296l 7.962,44.288L 353.28,280.858c0,0, 4.736,63.949-62.208,76.006
		C 223.846,368.998, 207.872,303.36, 207.872,303.36z M 285.21,325.376c 23.808-3.328, 40.704-20.48, 37.35-38.118L 237.312,300.288C 240.41,317.44, 261.914,328.704, 285.21,325.376zM 64.512,199.68c-19.942,20.224-32.512,48.384-32.512,79.616c0,56.32, 40.448,102.656, 92.928,109.568c 14.080,33.024, 46.080,56.32, 83.2,56.32
		c 11.52,0, 22.784-2.304, 33.024-6.656C 224.512,456.192, 201.472,467.2, 175.872,467.2c-36.864,0-68.864-23.040-82.944-56.064C 40.448,403.968,0,357.632,0,301.312
		C0,255.744, 26.624,216.858, 64.512,199.68z"  />
<glyph unicode="&#xe03e;" d="M 256,408.576c 46.080,0, 83.942-43.008, 89.088-103.68L 409.6,304.896 c0,96.742-68.838,171.008-153.6,171.008c-84.762,0-153.6-74.24-153.6-171.008l 64.512,0 
		C 172.058,365.568, 209.92,408.576, 256,408.576zM 434.458,279.296L 77.542,279.296 C 62.976,279.296, 51.2,267.238, 51.2,252.416l0-253.44 c0-14.822, 11.776-26.88, 26.342-26.88l 356.915,0 
		c 14.541,0, 26.317,12.058, 26.317,26.88l0,253.44 C 460.8,267.238, 449.024,279.296, 434.458,279.296z M 281.6,93.619l0-44.723 L 230.4,48.896 l0,44.723 
		c-17.075,9.165-28.851,27.008-28.851,47.77c0,30.080, 24.397,54.451, 54.451,54.451c 30.080,0, 54.451-24.371, 54.451-54.451
		C 310.451,120.627, 298.701,102.81, 281.6,93.619z"  />
<glyph unicode="&#xe03f;" d="M 344.909,90.061L 115.226,90.061 l0-25.6 l 173.184,0 c 1.869-21.76, 6.118-30.694, 11.75-47.36c 11.059-32, 21.453-44.646, 57.856-42.982
		c 23.68,1.101, 29.696,23.501, 21.248,52.019C 368.947,60.902, 344.909,90.061, 344.909,90.061z M 307.942,64.461l 31.411,0 c0,0, 43.443-67.866, 10.752-71.68
		C 315.213-11.238, 307.942,64.461, 307.942,64.461zM 386.611,268.467c 15.898,44.8, 12.8,86.246-6.4,94.95c-15.386,6.912-37.862-8.96-55.552-38.4
		c-4.634,83.456-49.638,148.992-104.474,148.992c-49.894,0-94.438-54.016-104.96-126.208l0-232.141 l 229.683,0 L 386.611,268.467z"  />
<glyph unicode="&#xe040;" d="M 249.856,249.6c0,0-18.944,56.576, 43.802,91.904C 377.344,388.864, 337.152,480, 337.152,480s 8.192-80.128-58.112-107.776C 179.712,330.496, 191.744,249.6, 191.744,249.6
		L 249.856,249.6 zM 308.224,249.6l 43.52,0 c0,0-8.192,18.176, 14.592,45.824c 22.502,27.904, 14.336,61.952, 14.336,61.952s0-33.024-28.928-46.592
		C 312.576,292.838, 308.224,249.6, 308.224,249.6zM 238.080,148.224c-77.056,6.938-149.222,20.48-212.966,38.656c-0.256-4.352-0.538-8.96-0.538-13.568
		c0-61.517, 27.494-105.702, 73.139-133.606c-3.533-3.84-6.682-8.397-9.139-13.594C 79.104,6.144, 82.176-16.64, 94.976-26.88
		c 13.338-10.496, 33.766-4.634, 46.336,15.104c 5.709,9.062, 8.499,19.226, 8.755,28.826C 179.738,8.32, 213.402,3.84, 250.112,3.84
		c 43.059,0, 83.635-0.538, 118.784,4.813c 1.306-6.938, 3.789-14.003, 8.013-20.454c 12.262-19.738, 32.717-25.6, 46.31-15.104
		c 12.8,10.189, 15.642,33.024, 6.4,52.941c-0.307,0.589-0.666,1.152-0.973,1.69c 34.125,20.070, 55.91,56.858, 58.573,124.262
		C 413.21,141.824, 328.192,140.058, 238.080,148.224zM 238.080,223.488C 160.742,230.4, 76.544,243.942, 12.8,262.4l0-37.658 c 63.744-18.381, 147.942-32, 225.28-38.912
		c 90.138-8.166, 187.136-6.4, 261.12,3.84L 499.2,227.328 C 425.19,217.088, 328.192,215.296, 238.080,223.488z"  />
<glyph unicode="&#xe041;" d="M 405.76,233.19L 499.2,262.4l-55.808,169.728c-31.488,8.448-64.768,13.056-99.354,13.056c-43.494,0-84.966-7.168-122.854-20.224
		L 190.464,467.2L 124.928,421.12l 22.528-21.76C 77.312,355.328, 28.416,288.256, 15.872,211.2l 397.338,0 L 405.76,233.19z M 433.638,301.312c 9.498,0, 16.896-7.424, 16.896-16.384
		c0-9.216-7.398-16.614-16.896-16.614c-9.19,0-16.614,7.398-16.614,16.614C 417.024,293.888, 424.448,301.312, 433.638,301.312z M 304.64,312.32
		c-55.808,0-101.12-7.168-101.12,11.264c0,18.176, 45.338,55.296, 101.12,55.296c 55.782,0, 101.094-37.12, 101.094-55.296C 405.76,305.152, 360.448,312.32, 304.64,312.32zM 217.6,134.4L 243.2,134.4L 243.2,57.6L 217.6,57.6zM 13.312,185.6c-0.256-5.376-0.512-8.704-0.512-14.362L 12.8,160 l 78.592,0 l-22.528-76.8l 22.528,0 l 22.528,76.8l 224.538,0 l 22.246-76.8l 22.554,0 l-22.554,76.8
		l 67.354,0 l-7.45,25.6L 13.312,185.6 zM 341.99,60.16c-12.262,0-23.808,2.304-34.304,6.938c-14.054-27.648-43.238-46.592-77.082-46.592
		c-34.56,0-64,19.738-77.824,48.154c-14.848-11.494-33.536-18.458-54.016-18.458c-40.448,0-74.496,27.341-83.712,64.538c-1.536-6.4-2.304-13.056-2.304-19.968
		c0-46.592, 38.656-84.224, 86.016-84.224c 20.48,0, 39.168,6.912, 54.016,18.432c 13.824-28.416, 43.264-48.128, 77.824-48.128c 33.792,0, 63.027,18.944, 77.082,46.592
		c 10.496-4.352, 21.99-6.938, 34.304-6.938c 47.642,0, 86.042,37.658, 86.042,84.224c0,6.938-0.794,13.568-2.355,19.738
		C 416.742,87.552, 382.72,60.16, 341.99,60.16z"  />
<glyph unicode="&#xe042;" d="M 0.102,39.962L 0.102,32 l 512,0 l0,102.4 l-512,0 C-0.41,129.562, 0.102,44.8, 0.102,39.962z M 494.976,231.424l-54.835,153.088
	c-30.669,7.424-63.462,11.52-97.536,11.52c-42.752,0-83.456-6.4-120.576-17.92L 192.102,416l-64.512-41.472l 22.016-19.456c-68.864-39.68-116.992-100.096-129.024-169.472
	l 390.17,0 l-7.424,19.942L 494.976,231.424z M 204.902,286.438c0,16.64, 44.288,49.946, 99.098,49.946c 54.81,0, 99.328-33.28, 99.328-49.946
	c0-16.384-99.328-9.702-99.328-9.702S 204.902,270.080, 204.902,286.438z M 414.362,251.648c0,8.448, 7.45,15.104, 16.41,15.104c 9.19,0, 16.64-6.656, 16.64-15.104
	c0-8.192-7.45-14.848-16.64-14.848C 421.811,236.8, 414.362,243.456, 414.362,251.648z"  />
<glyph unicode="&#xe043;" d="M 405.76,233.19L 499.2,262.4l-55.808,169.728c-31.488,8.448-64.768,13.056-99.354,13.056c-43.494,0-84.966-7.168-122.854-20.224
		L 190.464,467.2L 124.928,421.12l 22.528-21.76C 77.312,355.328, 28.416,288.256, 15.872,211.2l 397.338,0 L 405.76,233.19z M 433.638,301.312c 9.498,0, 16.896-7.424, 16.896-16.384
		c0-9.216-7.398-16.614-16.896-16.614c-9.19,0-16.614,7.398-16.614,16.614C 417.024,293.888, 424.448,301.312, 433.638,301.312z M 304.64,312.32
		c-55.808,0-101.12-7.168-101.12,11.264c0,18.176, 45.338,55.296, 101.12,55.296c 55.782,0, 101.094-37.12, 101.094-55.296C 405.76,305.152, 360.448,312.32, 304.64,312.32zM 217.6,134.4L 243.2,134.4L 243.2,57.6L 217.6,57.6zM 13.312,185.6c-0.256-5.376-0.512-8.704-0.512-14.362L 12.8,160 l 78.592,0 l-22.528-76.8l 22.528,0 l 22.528,76.8l 224.538,0 l 22.246-76.8l 22.554,0 l-22.554,76.8
		l 67.354,0 l-7.45,25.6L 13.312,185.6 zM 341.99,60.16c-12.262,0-23.808,2.304-34.304,6.938c-14.054-27.648-43.238-46.592-77.082-46.592
		c-34.56,0-64,19.738-77.824,48.154c-14.848-11.494-33.536-18.458-54.016-18.458c-40.448,0-74.496,27.341-83.712,64.538c-1.536-6.4-2.304-13.056-2.304-19.968
		c0-46.592, 38.656-84.224, 86.016-84.224c 20.48,0, 39.168,6.912, 54.016,18.432c 13.824-28.416, 43.264-48.128, 77.824-48.128c 33.792,0, 63.027,18.944, 77.082,46.592
		c 10.496-4.352, 21.99-6.938, 34.304-6.938c 47.642,0, 86.042,37.658, 86.042,84.224c0,6.938-0.794,13.568-2.355,19.738
		C 416.742,87.552, 382.72,60.16, 341.99,60.16z"  />
<glyph unicode="&#xe044;" d="M 256,156.928c-22.81,0-40.96-19.2-40.96-42.752s 18.15-42.496, 40.96-42.496c 22.81,0, 40.96,18.944, 40.96,42.496
		S 278.81,156.928, 256,156.928zM 371.2,275.456C 371.2,261.12, 359.962,249.6, 346.342,249.6L 165.632,249.6 C 152.064,249.6, 140.8,261.12, 140.8,275.456L 140.8,428.544 C 140.8,442.88, 152.064,454.4, 165.632,454.4l 180.71,0 
		C 359.962,454.4, 371.2,442.88, 371.2,428.544L 371.2,275.456 z M 256,4.608c-58.368,0-105.728,49.152-105.728,109.568C 150.272,174.848, 197.632,224, 256,224c 58.342,0, 105.728-49.152, 105.728-109.824
		C 361.728,53.76, 314.342,4.608, 256,4.608z M 362.752,480L 149.248,480 C 130.56,480, 115.2,464.128, 115.2,444.672l0-441.344 C 115.2-16.128, 130.56-32, 149.248-32l 213.504,0 
		c 18.688,0, 34.048,15.872, 34.048,35.328L 396.8,444.672 C 396.8,464.128, 381.44,480, 362.752,480z"  />
<glyph unicode="&#xe045;" d="M 238.848,3.84c-75.699,0-137.062,61.338-137.062,137.062c0,35.43, 13.773,67.354, 35.814,91.674L 137.6,280.934 
	c-43.366-31.437-71.706-82.355-71.706-140.006C 65.92,45.389, 143.334-32, 238.848-32c 57.19,0, 107.802,27.93, 139.29,70.81l-21.658,32.896
	C 332.646,31.309, 289.152,3.84, 238.848,3.84zM 160.922,434.688A45.312,45.312 180 1 1 251.546,434.688A45.312,45.312 180 1 1 160.922,434.688zM 443.11,78.054l-71.808,132.403c-4.454,8.371-12.544,12.723-20.992,13.030L 254.49,223.488 L 254.49,249.6 l 61.517,0 c 14.157,0, 25.6,11.469, 25.6,25.6
	s-11.443,25.6-25.6,25.6L 254.49,300.8 L 254.49,330.906 c0,26.675-21.606,48.282-48.282,48.282S 157.952,357.555, 157.952,330.906l0-159.974 c0-14.157, 11.469-25.6, 25.6-25.6l 163.968,0 l 50.765-94.566
	c 7.117-12.954, 22.989-17.715, 35.2-10.317C 446.003,48.128, 450.253,64.794, 443.11,78.054z"  />
<glyph unicode="&#xe046;" d="M 228.352,283.136l 24.576,23.040L 252.39,306.944C 232.704,325.12, 205.824,336.384, 176.128,336.384c-29.952,0-56.832-11.264-76.518-29.44L 99.072,306.176
		l 24.576-23.040l 0.742,0.512C 137.728,295.936, 155.904,303.616, 176.128,303.616c 19.968,0, 38.144-7.68, 51.482-19.968L 228.352,283.136zM 147.942,233.984c0-14.336, 12.8-26.112, 28.186-26.112c 15.616,0, 28.186,11.776, 28.186,26.112c0,14.592-12.544,26.368-28.186,26.368
		C 160.742,260.352, 147.942,248.576, 147.942,233.984zM 25.344,376.32c 38.656,35.84, 91.904,58.112, 150.784,58.112c 58.624,0, 111.872-22.272, 150.528-58.112l 0.512-0.768l 24.883,23.296L 351.488,399.36
		C 306.458,441.344, 244.48,467.2, 176.128,467.2c-68.608,0-130.56-25.856-175.616-67.84L0,398.848l 24.832-23.296L 25.344,376.32zM 277.76,329.472l 24.858,23.040l-0.742,0.512c-32.307,30.208-76.8,48.64-125.696,48.64c-49.152,0-93.696-18.432-125.952-48.64L 49.408,352.512
		l 24.832-23.040l 0.512,0.512c 26.112,24.064, 61.952,38.912, 101.376,38.912c 39.168,0, 75.034-14.848, 101.12-38.912L 277.76,329.472zM 481.562,313.6l-15.898,0 C 448.742,313.6, 435.2,299.52, 435.2,282.368l0-122.368 l-5.862,0 c 2.534,5.709, 4.045,11.981, 4.045,18.688L 433.382,192.512 
		c0,24.576-18.944,44.288-42.24,44.288L 323.84,236.8 c-23.296,0-42.24-19.712-42.24-44.288l0-13.798 c0-6.733, 1.562-13.005, 4.045-18.662L 76.8,160.051 L 76.8,231.168 
		C 76.8,248.32, 63.232,262.4, 46.336,262.4L 30.464,262.4 C 13.568,262.4,0,248.32,0,231.168l0-219.11 C0-5.12, 13.568-19.2, 30.464-19.2l 15.872,0 C 63.232-19.2, 76.8-5.12, 76.8,12.058L 76.8,83.2 
		l 358.4,0 l0-66.048 c0-17.408, 13.542-31.488, 30.438-31.488l 15.898,0 c 16.896,0, 30.413,14.131, 30.413,31.488L 511.949,273.664 C 512,291.072, 498.458,313.6, 481.562,313.6z"  />
<glyph unicode="&#xe047;" d="M 435.2,121.6l-128,0 l0,25.6 l 128,0 L 435.2,121.6 z M 204.8,377.6L 204.8,403.2 l 128,0 l0-25.6 L 204.8,377.6 z M 204.8,147.2l0-25.6 L 76.8,121.6 l0,25.6 L 204.8,147.2 z M 384,172.8L 384,249.6 l-102.4,0 L 281.6,275.2 l 76.8,0 L 358.4,428.8 L 179.2,428.8 l0-153.6 l 76.8,0 l0-25.6 L 128,249.6 l0-76.8 L 51.2,172.8 l0-153.6 l 179.2,0 l0,153.6 L 153.6,172.8 l0,51.2 l 204.8,0 l0-51.2 l-76.8,0 l0-153.6 l 179.2,0 
	l0,153.6 L 384,172.8 z"  />
<glyph unicode="&#xe048;" d="M 123.699,261.12c-12.544-12.8-20.506-30.464-20.506-49.92c0-19.43, 7.962-37.12, 20.506-49.92l 0.256-0.538l 16.154,16.154
		l-0.538,0.512c-8.448,8.704-13.568,20.787-13.568,33.792c0,13.056, 5.12,25.088, 13.568,33.792l 0.538,0.512L 123.93,261.632L 123.699,261.12z M 91.699,293.632
		C 70.938,272.384, 58.138,243.2, 58.138,211.2s 12.8-61.21, 33.562-82.458l 0.512-0.256l 15.872,16.154l-0.538,0.256c-16.64,17.152-26.88,40.448-26.88,66.278
		c0,25.856, 10.214,49.152, 26.88,66.304l 0.538,0.256L 92.186,293.888L 91.699,293.632z M 59.699,325.888c-28.928-29.44-46.848-69.888-46.848-114.688s 17.92-85.248, 46.848-114.688
		L 60.186,96l 15.898,16.128L 75.802,112.64c-25.062,25.344-40.448,60.16-40.448,98.534c0,38.4, 15.386,73.19, 40.448,98.56L 76.083,310.272L 60.186,326.4L 59.699,325.888z
		 M 155.699,211.43c0-10.214, 8.192-18.406, 18.176-18.406s 18.176,8.166, 18.176,18.406c0,10.010-8.192,18.458-18.176,18.458S 155.699,221.44, 155.699,211.43zM 263.194,383.232c 30.976,25.6, 73.984,21.76, 111.104,14.822c 41.011-11.008, 87.552-23.808, 110.541-62.208c 21.504-44.544, 17.152-97.28-2.56-141.568
		c-9.446-20.787-23.552-38.656-35.046-57.856c 8.422-24.576, 31.718-40.704, 41.446-64.538c-42.752-9.498-85.504-17.152-128-27.162
		c-15.104,27.904-27.162,59.392-51.712,80.896c-19.456,8.192-42.496,3.328-61.184,14.592l 5.888,26.317l-12.544,2.33c 4.352,10.214, 12.544,17.894, 19.2,26.65
		l-23.296,11.469c 8.704,20.762-12.8,28.672-26.598,37.888c 13.542,14.080, 27.622,27.648, 40.96,42.24c-6.144,26.112, 17.152,44.006, 27.904,65.254
		C 273.459,362.496, 268.339,372.736, 263.194,383.232z"  />
<glyph unicode="&#xe049;" d="M 256,428.8C 143.053,428.8, 51.2,336.947, 51.2,224.026S 143.053,19.2, 256,19.2c 112.922,0, 204.8,91.904, 204.8,204.826S 368.922,428.8, 256,428.8z M 256,48.358
	c-51.405,0-97.741,22.195-129.894,57.523c 1.306,3.84, 10.112,29.286, 15.949,40.934c 6.323,12.646, 8.422,14.054, 22.477,26.701
	c 14.054,12.646-28.109,18.278-37.939,28.109C 116.762,211.456, 111.846,211.456, 100.608,220.339c-8.397,6.682-13.286-22.886-15.206-38.144
	c-3.302,13.389-5.069,27.392-5.069,41.856c0,37.274, 11.725,71.834, 31.59,100.326C 106.317,306.995, 101.325,281.702, 123.085,289.382
	c 23.885,8.448, 25.984,18.278, 25.984,18.278l 14.054,24.576c0,0, 2.125-34.406, 4.915-39.322S 182.093,273.92, 186.317,293.606
	C 194.074,329.754, 195.379,339.968, 208.717,339.968s 40.832,10.522, 43.622-21.76c 2.816-32.333-2.816-13.363-20.378-21.811S 210.202,258.483, 226.355,254.976
	C 242.509,251.443, 279.040,236.698, 279.040,236.698l 18.253-20.378l 5.632-21.786c0,0, 3.533-24.602, 3.533-26.701s0-22.502,0-22.502s 0.691-44.262, 16.845-33.69
	s 60.39,79.411, 51.277,105.37c-9.114,26.010-9.83,28.826, 7.014,37.939s 28.8,20.378, 28.109,32.998c-0.512,8.883, 0.41,14.285, 0.538,20.096
	c 13.645-24.986, 21.453-53.632, 21.453-84.045C 431.642,127.155, 352.87,48.358, 256,48.358z"  />
<glyph unicode="&#xe04a;" d="M 512.026,224l-114.586,58.598l 39.552,122.419l-122.368-39.578L 256,480L 197.402,365.44L 75.008,405.018l 39.552-122.419L0,224
		l 114.56-58.598L 75.008,43.008l 122.394,39.552L 256-32l 58.624,114.56l 122.368-39.552l-39.552,122.394L 512.026,224z M 256,117.606
		c-58.752,0-106.394,47.642-106.394,106.394c0,58.778, 47.642,106.394, 106.394,106.394s 106.419-47.616, 106.419-106.394C 362.394,165.248, 314.752,117.606, 256,117.606
		zM 179.994,224A76.006,76.006 180 1 1 332.006,224A76.006,76.006 180 1 1 179.994,224z"  />
<glyph unicode="&#xe04b;" d="M 249.856,249.6c0,0-18.944,56.576, 43.802,91.904C 377.344,388.864, 337.152,480, 337.152,480s 8.192-80.128-58.112-107.776C 179.712,330.496, 191.744,249.6, 191.744,249.6
		L 249.856,249.6 zM 308.224,249.6l 43.52,0 c0,0-8.192,18.176, 14.592,45.824c 22.502,27.904, 14.336,61.952, 14.336,61.952s0-33.024-28.928-46.592
		C 312.576,292.864, 308.224,249.6, 308.224,249.6zM 238.080,148.224c-77.056,6.938-149.248,20.48-212.992,38.656c-0.256-4.352-0.512-8.96-0.512-13.568
		c0-61.542, 27.494-105.754, 73.139-133.606c-3.533-3.84-6.682-8.397-9.139-13.594c-9.472-19.942-6.4-42.752, 6.4-52.941
		c 13.312-10.496, 33.792-4.659, 46.336,15.104c 5.709,9.037, 8.474,19.2, 8.73,28.8C 179.738,8.32, 213.402,3.84, 250.112,3.84
		c 43.059,0, 83.635-0.538, 118.758,4.813c 1.306-6.963, 3.814-14.003, 7.987-20.429c 12.262-19.738, 32.742-25.6, 46.31-15.104
		c 12.8,10.189, 15.642,32.998, 6.4,52.941c-0.307,0.589-0.666,1.126-0.973,1.69c 34.125,20.070, 55.91,56.858, 58.573,124.262
		C 413.21,141.824, 328.192,140.058, 238.080,148.224zM 238.080,223.514C 160.768,230.4, 76.544,243.942, 12.8,262.4l0-37.658 c 63.744-18.381, 147.968-32, 225.28-38.912
		c 90.138-8.166, 187.136-6.4, 261.12,3.84L 499.2,227.328 C 425.19,217.114, 328.192,215.296, 238.080,223.514z"  />
<glyph unicode="&#xe04c;" d="M 409.6,32l 25.6,0 c 28.16,0, 51.2,23.040, 51.2,51.2l0,204.8 c0,28.16-23.040,51.2-51.2,51.2l-25.6,0 L 409.6,32 z M 76.8,339.2c-28.16,0-51.2-23.040-51.2-51.2l0-204.8 c0-28.16, 23.040-51.2, 51.2-51.2l 25.6,0 l0,307.2 L 76.8,339.2 
	z M 128,32l 256,0 l0,307.2 l-51.2,0 l0,76.8 L 179.2,416 l0-76.8 L 128,339.2 L 128,32 z M 307.2,339.2L 204.8,339.2 l0,51.2 l 102.4,0 L 307.2,339.2 z M 230.4,262.4l 51.2,0 l0-51.2 l 51.2,0 l0-51.2 l-51.2,0 l0-51.2 L 230.4,108.8 l0,51.2 L 179.2,160 l0,51.2 l 51.2,0 L 230.4,262.4 z"  />
<glyph unicode="&#xe04d;" d="M 154.138,460.8c-8.704,8.448-22.528,8.448-30.976,0L 53.504,391.168c-8.448-8.448-8.448-22.272,0-30.72L 107.52,306.432l 53.76-54.016
		c 8.448-8.448, 22.272-8.448, 30.976,0.256l 69.376,69.376c 8.704,8.704, 8.704,22.528, 0.256,30.976c-8.704,8.448-22.528,8.448-30.976,0L 176.896,298.752L 153.6,322.074l 54.272,54.016
		c 8.448,8.448, 8.448,22.272,0,30.976c-8.448,8.448-22.272,8.448-30.72-0.256L 122.88,352.768l-23.040,23.040l 54.016,54.272C 162.586,438.528, 162.586,452.352, 154.138,460.8z
		 M 385.024,229.914c-8.448,8.448-22.272,8.448-30.976-0.256l-69.376-69.402c-8.73-8.704-8.73-22.528-0.282-30.976l 54.042-53.76l 53.965-54.016
		c 8.448-8.448, 22.272-8.448, 30.669,0l 69.683,69.658c 8.448,8.448, 8.448,22.246,0,30.95c-8.448,8.448-22.272,8.448-30.72-0.256L 407.808,67.84l-23.040,22.989
		l 54.042,54.272c 8.704,8.448, 8.704,22.272, 0.256,30.72c-8.704,8.448-22.554,8.448-31.002,0L 354.048,121.6l-23.296,23.296l 54.272,53.99
		C 393.472,207.36, 393.472,221.21, 385.024,229.914z M 37.658,206.080c-29.696-29.952-33.28-75.008-7.68-100.352c 25.344-25.6, 70.4-22.016, 100.096,7.936l 1.024,0.794
		l 91.904,91.904l 15.36-15.386l-91.904-91.904l-0.768-1.024c-29.952-29.696-33.536-74.752-7.936-100.096c 25.344-25.6, 70.4-21.99, 100.352,7.706
		c 29.696,29.952, 33.306,75.008, 7.936,100.352c-8.448,8.448-18.944,13.798-30.464,15.846l 216.013,216.090c 16.896,17.152, 17.152,44.8,0,61.696
		c-16.845,17.152-44.493,16.896-61.645,0l-216.064-216.064c-2.048,11.52-7.424,22.016-15.872,30.464C 112.64,239.386, 67.61,235.776, 37.658,206.080z M 60.928,182.81
		c 16.896,17.152, 41.216,20.762, 54.016,7.962s 9.216-36.864-7.936-54.016c-16.896-17.152-41.216-20.787-54.016-7.987S 43.776,165.888, 60.928,182.81z M 168.704,75.008
		c 17.152,17.152, 41.216,20.787, 54.016,7.987s 9.216-37.12-7.936-54.016c-16.896-17.152-41.216-20.762-54.016-7.962S 151.552,57.856, 168.704,75.008z M 253.952,252.698
		c 8.448,8.448, 22.272,8.704, 30.72,0c 8.704-8.448, 8.448-22.272,0-30.72c-8.448-8.704-22.272-8.704-30.72,0C 245.274,230.4, 245.274,244.25, 253.952,252.698z"  />
<glyph unicode="&#xe04e;" d="M 356.301,206.387l0-55.885 c 29.568-9.549, 48.128-23.603, 48.128-38.938c0-28.8-68.173-62.643-147.43-62.643
		c-78.976,0-149.427,33.843-149.427,62.643c0,15.334, 18.56,29.338, 48.128,38.938l0,55.885 C 64.435,188.39,0,144.998,0,94.387
		c0-66.944, 117.581-121.088, 256-121.088c 138.394,0, 256,54.144, 256,121.088C 512,144.998, 447.539,188.39, 356.301,206.387zM 195.61,137.6A60.39,25.958 180 1 1 316.39,137.60000000000002A60.39,25.958 180 1 1 195.61,137.60000000000002zM 281.062,326.093L 413.44,390.477L 230.938,474.726L 230.938,434.867L 230.938,301.722L 230.938,173.85L 281.062,173.85 	z"  />
<glyph unicode="&#xe04f;" d="M 479.488,249.6l-16.64,0 L 460.8,249.6 L 460.8,336.64 C 460.8,345.088, 453.888,352, 445.696,352L 409.6,352 L 409.6,362.24 C 409.6,370.688, 402.688,377.6, 394.496,377.6l-20.992,0 
	C 365.312,377.6, 358.4,370.688, 358.4,362.24L 358.4,249.6 L 153.6,249.6 L 153.6,362.24 C 153.6,370.688, 146.688,377.6, 138.496,377.6L 117.504,377.6 C 109.312,377.6, 102.4,370.688, 102.4,362.24L 102.4,352 L 66.304,352 C 58.112,352, 51.2,345.088, 51.2,336.64L 51.2,249.6 L 49.152,249.6 L 32.512,249.6 
	C 14.592,249.6,0,239.36,0,226.56l0-5.12 C0,208.64, 14.592,198.4, 32.512,198.4l 16.64,0 L 51.2,198.4 l0-87.040 C 51.2,102.912, 58.112,96, 66.304,96L 102.4,96 l0-10.24 C 102.4,77.312, 109.312,70.4, 117.504,70.4l 20.992,0 
	C 146.688,70.4, 153.6,77.312, 153.6,85.76L 153.6,198.4 l 204.8,0 l0-112.64 c0-8.448, 6.912-15.36, 15.104-15.36l 20.992,0 c 8.192,0, 15.104,6.912, 15.104,15.36L 409.6,96 l 36.096,0 c 8.192,0, 15.104,6.912, 15.104,15.36L 460.8,198.4 
	l 2.048,0 l 16.64,0 C 497.408,198.4, 512,208.64, 512,221.44L 512,226.56 C 512,239.36, 497.408,249.6, 479.488,249.6z"  />
<glyph unicode="&#xe050;" d="M 9.344,224c0-117.811, 55.296-213.248, 123.392-213.248c 61.44,0, 112.384,78.054, 121.856,179.942c-11.776,1.562-22.272,7.424-29.21,15.846
	c-5.606-66.022-36.096-116.454-72.96-116.454c-40.96,0-73.984,62.208-73.984,138.726c0,76.8, 33.024,139.008, 73.984,139.008c 35.354,0, 64.768-46.566, 72.192-108.8
	c 6.656,8.448, 16.384,14.592, 27.648,16.64c-13.312,92.928-61.952,161.562-119.552,161.562C 64.64,437.248, 9.344,341.76, 9.344,224z M 117.888,228.838
	c0-38.144, 17.638-69.376, 39.398-69.376c 19.994,0, 36.378,25.882, 39.194,59.674l 49.894,0 c 3.84-22.272, 33.306-39.68, 68.634-39.68c 27.622,0, 51.2,10.214, 62.438,25.344
	c 10.496-22.016, 45.338-45.338, 60.928-52.787c 32-15.104, 64.256,10.035, 64.256,34.79c0,16.41-12.8,30.746-31.718,38.426c 18.918,7.68, 31.718,21.99, 31.718,38.4
	c0,24.576-30.669,46.080-64.256,34.79c-28.365-9.728-55.014-32-62.234-53.504c-11.494,14.080-34.56,23.552-61.21,23.552c-29.952,0-55.552-12.262-64.998-29.67
	l-53.504,0 c-2.816,33.766-19.2,59.622-39.194,59.622C 135.552,298.47, 117.888,267.238, 117.888,228.838z"  />
<glyph unicode="&#xe051;" d="M 486.4,467.2L 25.6,467.2 C 18.534,467.2, 12.8,461.466, 12.8,454.4l0-460.8 c0-7.066, 5.734-12.8, 12.8-12.8l 460.8,0 c 7.066,0, 12.8,5.734, 12.8,12.8L 499.2,454.4 
		C 499.2,461.466, 493.466,467.2, 486.4,467.2z M 473.6,6.4l-435.2,0 l0,435.2 l 435.2,0 L 473.6,6.4 zM 83.968,19.2l 62.464,0 C 164.352,19.2, 179.2,34.56, 179.2,53.76L 179.2,231.424 c0,32.512-17.792,52.48-41.088,64.512L 138.112,403.2 l-51.2,0 l0-107.264 
		C 60.288,285.952, 51.2,267.008, 51.2,231.424l0-177.664 C 51.2,34.56, 66.048,19.2, 83.968,19.2z M 76.8,224l 9.472,0 L 153.6,224 l0-25.6 L 76.8,198.4 L 76.8,224 zM 307.2,44.8L 237.645,44.8 c-18.458,0-18.688-25.6,0-25.6l 165.299,0 c 18.688,0, 18.432,25.6,0,25.6L 332.8,44.8 l0,78.080 L 432.896,249.6L 205.312,249.6 L 307.2,122.88L 307.2,44.8 z
		 M 350.72,199.142c 9.984,0, 17.92-7.91, 17.92-17.638c0-9.984-8.013-17.894-17.92-17.894c-9.728,0-17.664,7.987-17.664,17.894
		C 333.056,191.258, 340.992,199.142, 350.72,199.142z"  />
<glyph unicode="&#xe052;" d="M 131.84,416C 66.048,416, 12.8,362.24, 12.8,295.936c0-35.328, 15.104-75.264, 39.142-97.050L 33.562,32L 140.8,32 l0,76.8 l 25.6,0 l0,51.2 l-25.6,0 l0,26.624 l 230.4,30.976
		L 371.2,363.776 l-198.4,43.52L 131.84,416z M 126.746,238.592C 98.048,238.592, 75.008,261.888, 75.008,290.816c0,28.672, 23.040,51.968, 51.738,51.968c 28.416,0, 51.738-23.296, 51.738-51.968
		C 178.483,261.888, 155.187,238.592, 126.746,238.592zM 425.882,325.018c 8.422,0, 15.923,2.79, 21.478,7.296L 447.36,332.288 c 5.555,4.582, 13.107,7.45, 21.504,7.45
		c 13.952,0, 25.651-7.603, 29.338-17.894c 0.614,2.048, 0.973,4.275, 0.973,6.477c0,13.619-13.491,24.576-30.31,24.576
		c-8.448,0-15.949-2.79-21.504-7.27c-5.555-4.608-13.107-7.603-21.478-7.603c-13.926,0-25.677,7.757-29.338,18.074
		c-0.64-2.048-0.973-4.275-0.973-6.502C 395.571,335.949, 409.062,325.018, 425.882,325.018zM 468.813,258.227c-8.448,0-15.949-2.79-21.504-7.296L 447.309,250.982 c-5.53-4.582-13.082-7.45-21.453-7.45
		c-13.926,0-25.677,7.603-29.338,17.894c-0.64-2.048-0.973-4.275-0.973-6.477c0-13.619, 13.44-24.576, 30.31-24.576
		c 8.422,0, 15.923,2.79, 21.453,7.27c 5.555,4.608, 13.107,7.603, 21.504,7.603c 13.952,0, 25.651-7.757, 29.338-18.074
		c 0.614,2.048, 0.998,4.275, 0.998,6.502C 499.123,247.27, 485.658,258.227, 468.813,258.227zM 468.813,305.536c-8.448,0-15.949-2.79-21.504-7.27L 447.309,298.291 c-5.53-4.608-13.082-7.603-21.453-7.603
		c-13.926,0-25.677,7.782-29.338,18.099c-0.64-2.099-0.973-4.301-0.973-6.528c0-13.619, 13.44-24.576, 30.31-24.576
		c 8.422,0, 15.923,2.79, 21.453,7.27c 5.555,4.582, 13.107,7.578, 21.504,7.578c 13.952,0, 25.651-7.757, 29.338-18.074
		c 0.614,2.074, 0.998,4.301, 0.998,6.502C 499.123,294.605, 485.658,305.536, 468.813,305.536z"  />
<glyph unicode="&#xe053;" d="M 509.926,292.070c-11.622,33.766-31.027,83.43-31.027,83.43L 478.899,422.912 c0,0-109.619,22.17-175.462-135.885L 276.224,287.027 
		C 265.882,289.050, 254.797,290.304, 243.456,290.304c-10.112,0-19.686-9.574-29.005-11.315C 207.411,280.73, 199.578,281.472, 191.77,281.472
		c-15.104,0-29.491-3.277-42.112-9.062C 143.13,282.24, 98.765,340.48, 16.333,302.387c-28.262-13.107-16.64-64.026, 10.342-52.173
		C 53.914,261.811, 109.338,289.28, 119.68,260.531c 0.742-2.509, 1.536-5.018, 2.253-7.808c-14.387-14.618-22.938-33.792-22.938-54.963
		c0-20.403, 8.32-39.296, 21.939-53.888L 61.952,78.541c-7.552-8.858-7.552-22.451, 0.256-31.488c 9.549-8.576, 23.194-7.834, 31.002,1.741
		l 37.299,26.445c 6.298,39.603, 59.213,70.349, 123.29,70.349l 10.342-0.282c 25.472-1.254, 48.41-7.552, 67.072-16.87
		c 14.618-7.552, 26.445-16.896, 34.56-27.75l 58.010-46.387c 9.062-7.014, 22.451-5.837, 30.464,2.765c 7.578,9.83, 5.837,23.142-4.045,30.259
		l-72.064,71.834l0,7.347 L 378.138,250.214 l 41.344,41.856l 61.491-31.514C 480.922,260.557, 521.498,258.048, 509.926,292.070zM 243.405,359.040l0-46.822 l 25.19,0 L 268.595,358.989 c 13.747,5.171, 23.578,18.458, 23.578,34.176c0,20.173-16.128,36.557-36.045,36.557
		c-20.147,0-36.301-16.384-36.301-36.557C 219.827,377.523, 229.606,364.262, 243.405,359.040zM 243.405,130.048L 268.595,130.048L 268.595,9.728L 243.405,9.728z"  />
<glyph unicode="&#xe054;" d="M 256,453.658c-126.848,0-229.632-102.81-229.632-229.658c0-126.822, 102.81-229.658, 229.658-229.658c 126.797,0, 229.632,102.835, 229.632,229.658
	C 485.658,350.848, 382.797,453.658, 256,453.658z M 345.6,326.4l-128,0 l0-76.8 l 128,0 l0-25.6 l-128,0 l0-102.4 l 128,0 l0-25.6 l-179.2,0 L 166.4,352 l 179.2,0 L 345.6,326.4 z"  />
<glyph unicode="&#xe055;" d="M0,430.080L0,20.48L 51.2,20.48L 51.2,378.88L 460.8,378.88L 460.8,20.48L 512,20.48L 512,430.080 	zM 275.84,81.946L 103.68,134.118L 91.392,92.672L 231.27,50.253L 257.792,17.92L 427.52,128.742L 403.2,163.789 	zM 227.738,112.538c0,0-17.331,23.654, 1.152,59.648c 18.355,35.891, 18.662,44.749, 18.662,44.749l0-37.299 
		c0,0, 26.624,45.619, 25.088,67.098c0,0, 51.84-36.352, 23.834-134.195c0,0, 120.32,50.381, 12.365,193.92c0,0, 4.762-26.138,0-37.299
		c-4.582-11.213-0.691,65.306-62.413,82.048c0,0, 22.63-47.565-31.309-104.422c0,0-13.312,14.874-6.246,37.248
		C 208.922,284.032, 124.518,161.869, 227.738,112.538z"  />
</font>
</defs>
</svg>
